<?xml version="1.0" standalone="no"?> <!DOCTYPE svg PUBLIC "-//W3C//DTD SVG 1.0//EN" "http://www.w3.org/TR/2001/REC-SVG-20010904/DTD/svg10.dtd" >
<svg xmlns="http://www.w3.org/2000/svg" width="100%" height="100%">
<defs>
<font horiz-adv-x="486" id="GuardianEgyp-ThinIt-Web">
<font-face
    font-family=""
    units-per-em="1000"
    panose-1="2 6 3 3 5 5 3 13 8 3"
    ascent="790"
    descent="-210"
    alphabetic="0" />
<missing-glyph horiz-adv-x="500" />
<glyph unicode=" " glyph-name="space" horiz-adv-x="191" />
<glyph unicode="!" glyph-name="exclam" horiz-adv-x="197" d="M186 693H228L93 166H69L186 693ZM47 -8Q33 -8 25 1T17 21Q17 35 27 44T51 54Q65 54 73 45T81 25Q81 11 71 2T47 -8Z" />
<glyph unicode="&quot;" glyph-name="quotedbl" horiz-adv-x="244" d="M174 693H217L163 518H136L174 693ZM270 693H312L258 518H232L270 693Z" />
<glyph unicode="#" glyph-name="numbersign" horiz-adv-x="451" d="M101 463H189L262 693H293L219 463H352L425 693H456L383 463H468L460 429H372L323 275H410L401 241H312L236 0H205L281 241H148L72 0H41L118 241H35L44 275H129L178 429H93L101 463ZM159 275H292L341
429H208L159 275Z" />
<glyph unicode="$" glyph-name="dollar" horiz-adv-x="478" d="M185 -8Q162 -8 140 -5L100 -117H73L114 -2Q77 4 47 15T-4 37L18 166H42L36 61Q51 50 73 41T125 27L242 350L225 361Q202 376 182 392T146 426T121 468T112 522Q112 561 126 594T167 651T233 689T324
703Q348 703 369 700L393 765H420L395 697Q424 692 444 685T482 669L470 549H447L444 645Q435 650 421 656T385 668L277 371L290 363Q319 345 343 327T384 289T410 245T419 188Q419 152 406 117T365 54T293 9T185 -8ZM264 335L151 23Q160 21 170 21T191 21Q242
21 278 35T336 71T369 123T380 183Q380 209 375 228T356 263T322 296T267 334L264 335ZM150 532Q150 485 172 454T247 390L255 385L359 672Q351 673 342 673T322 674Q239 674 195 635T150 532Z" />
<glyph unicode="%" glyph-name="percent" horiz-adv-x="746" d="M212 343Q159 343 125 378T91 478Q91 524 107 565T149 637T208 686T277 704Q331 704 364 670T397 569Q397 525 382 485T341 413T282 362T212 343ZM521 -8Q468 -8 434 27T400 127Q400 173 416 214T458
286T517 335T586 353Q640 353 673 319T706 218Q706 174 691 134T650 62T591 11T521 -8ZM523 18Q545 18 564 26T600 49Q616 63 629 83T652 126T667 174T673 225Q673 275 651 301T583 327Q560 327 539 318T501 292Q486 278 474 259T452 217T438 169T433 120Q433 71
456 45T523 18ZM214 369Q236 369 255 377T291 400Q307 414 320 434T343 477T358 525T364 576Q364 626 342 652T274 678Q251 678 230 669T192 643Q177 629 165 610T143 568T129 520T124 471Q124 422 147 396T214 369ZM705 713H737L76 -40H45L705 713Z" />
<glyph unicode="&amp;" glyph-name="ampersand" horiz-adv-x="636" d="M192 -10Q149 -10 116 2T61 35T26 84T14 144Q14 223 64 281T214 387Q197 415 185 447T172 518Q172 561 186 595T225 652T281 688T347 701Q399 701 434 672T469 586Q469 550 454 521T412 467T348
421T264 378L415 139Q450 184 473 234T513 324L442 333L446 355H620L617 333L549 324Q529 279 501 222T431 113L483 31L570 22L566 0H458L405 83Q364 42 312 16T192 -10ZM196 20Q258 20 305 45T389 108L228 364Q141 322 98 271T54 150Q54 93 90 57T196 20ZM210
522Q211 487 223 457T250 400Q293 419 326 439T383 481T418 528T431 586Q431 628 408 651T344 674Q317 674 293 663T250 633T221 585T210 522Z" />
<glyph unicode="&apos;" glyph-name="quotesingle" horiz-adv-x="149" d="M174 693H217L163 518H136L174 693Z" />
<glyph unicode="(" glyph-name="parenleft" horiz-adv-x="290" d="M148 -136Q131 -114 112 -83T75 -11T47 77T36 183Q36 251 51 312T93 428T153 530T223 617T296 687T364 740L378 723Q332 686 279 634T181 512T105 359T74 173Q74 124 83 80T106 -2T136 -70T167
-123L148 -136Z" />
<glyph unicode=")" glyph-name="parenright" horiz-adv-x="290" d="M174 740Q191 718 210 687T247 615T275 527T286 421Q286 353 271 292T229 176T169 74T99 -13T26 -83T-42 -136L-56 -119Q-10 -82 43 -30T141 92T217 245T248 431Q248 480 239 524T216 606T186
674T155 727L174 740Z" />
<glyph unicode="*" glyph-name="asterisk" horiz-adv-x="322" d="M226 535L113 480L104 509L222 554L131 616L150 643L234 571L256 693H292L253 568L367 625L376 596L258 549L347 488L328 461L245 533L224 412H188L226 535Z" />
<glyph unicode="+" glyph-name="plus" horiz-adv-x="495" d="M77 364H248V543H279V364H450V335H279V157H248V335H77V364Z" />
<glyph unicode="," glyph-name="comma" horiz-adv-x="145" d="M-50 -111Q-31 -73 -18 -34T4 52H47Q26 -41 -24 -111H-50Z" />
<glyph unicode="-" glyph-name="hyphen" horiz-adv-x="283" d="M56 292H251L242 258H47L56 292Z" />
<glyph unicode="." glyph-name="period" horiz-adv-x="147" d="M19 -8Q5 -8 -3 1T-11 21Q-11 35 -1 44T23 54Q37 54 45 45T53 25Q53 11 43 2T19 -8Z" />
<glyph unicode="/" glyph-name="slash" horiz-adv-x="320" d="M374 733H407L-42 -120H-75L374 733Z" />
<glyph unicode="0" glyph-name="zero" horiz-adv-x="582" d="M240 -10Q148 -10 95 49T42 221Q42 309 67 395T139 549T250 659T392 701Q484 701 537 644T590 471Q590 384 564 298T492 144T381 33T240 -10ZM243 18Q294 18 338 40T418 102Q449 134 474 179T516 275T543
380T553 484Q553 576 512 624T389 673Q301 673 230 605Q196 573 168 528T121 429T90 320T79 210Q79 118 120 68T243 18Z" />
<glyph unicode="1" glyph-name="one" horiz-adv-x="324" d="M-20 22L89 30L256 650L116 622L121 643L292 700H306L128 30L238 22L233 0H-25L-20 22Z" />
<glyph unicode="2" glyph-name="two" horiz-adv-x="485" d="M-34 26L204 211Q262 256 311 296T396 376T452 458T472 549Q472 606 434 640T321 675Q252 675 210 647T168 571Q168 563 170 554T174 539H144Q139 545 135 556T130 580Q130 606 144 628T185 667T247
693T329 703Q369 703 403 693T461 663T499 616T513 553Q513 500 492 454T432 363T340 276T222 186L18 36V35H403L392 0H-40L-34 26Z" />
<glyph unicode="3" glyph-name="three" horiz-adv-x="472" d="M174 -7Q103 -7 58 9T-18 46L-11 72Q22 53 63 39T168 24Q214 24 253 37T322 75T367 138T384 225Q384 250 375 273T346 314T292 341T212 352H159L165 382H218Q261 382 300 393T370 427T417 483T435
562Q435 613 403 644T301 675Q240 675 203 651T166 586Q166 579 167 572T170 560H143Q139 567 136 576T132 597Q132 620 145 639T183 673T239 695T308 703Q387 703 430 666T473 564Q473 521 458 488T416 430T357 391T290 368V366Q315 362 338 352T381 324T411 281T423
221Q423 167 403 125T349 53T270 8T174 -7Z" />
<glyph unicode="4" glyph-name="four" horiz-adv-x="538" d="M203 22L300 30L347 209H9L18 237L479 693H512L393 239H515L507 209H385L338 30L431 22L425 0H197L203 22ZM355 239L457 629H455L61 241V239H355Z" />
<glyph unicode="5" glyph-name="five" horiz-adv-x="473" d="M153 -7Q93 -7 48 9T-29 45L-22 71Q10 54 52 40T150 26Q209 26 253 42T326 89T370 159T385 248Q385 311 346 350T229 390Q183 390 151 382T94 367L193 693H514L503 657H216L138 404Q155 409 178 414T244
419Q330 419 378 374T427 254Q427 199 409 152T357 69T271 13T153 -7Z" />
<glyph unicode="6" glyph-name="six" horiz-adv-x="536" d="M242 -9Q197 -9 160 6T97 50T56 116T42 202Q42 268 56 330T96 446T156 544T231 620Q283 662 342 682T459 703Q505 703 534 693T578 671L572 645Q553 656 526 664T461 672Q405 672 348 650T241 585T153
479T96 335Q114 348 136 361T184 386T241 404T306 411Q347 411 381 400T439 368T476 317T490 250Q490 192 471 145T419 63T340 10T242 -9ZM243 19Q289 19 327 35T392 81T435 152T450 244Q450 312 409 346T293 380Q261 380 233 373T179 355T131 330T90 302Q85 279
83 251T80 195Q80 114 123 67T243 19Z" />
<glyph unicode="7" glyph-name="seven" horiz-adv-x="478" d="M523 653V656H168L136 568H112L145 693H565L558 660L130 0H88L523 653Z" />
<glyph unicode="8" glyph-name="eight" horiz-adv-x="540" d="M238 -10Q186 -10 146 3T78 39T36 92T21 155Q21 205 46 241T107 302T184 343T257 368Q204 394 170 430T136 519Q136 559 151 593T196 651T265 689T355 703Q398 703 432 692T490 661T526 614T539 556Q539
514 521 482T473 427T408 387T337 362Q406 330 445 292T485 195Q485 151 469 114T421 49T343 6T238 -10ZM240 18Q291 18 329 31T393 67T432 122T445 189Q445 216 436 238T406 278T356 314T283 351Q246 339 207 324T135 286T81 232T60 155Q60 127 71 102T104 59T160
29T240 18ZM311 380Q350 390 384 405T444 442T485 491T500 557Q500 612 461 643T354 675Q271 675 224 634T176 524Q176 474 209 442T311 380Z" />
<glyph unicode="9" glyph-name="nine" horiz-adv-x="537" d="M140 -8Q89 -8 57 2T9 25L14 50Q34 39 65 31T138 23Q202 23 260 44T364 108T444 215T492 363Q474 349 452 335T403 308T346 289T281 281Q194 281 145 324T96 445Q96 503 115 550T168 632T247 684T345
703Q390 703 427 688T490 646T530 580T545 493Q545 359 501 253T383 81Q282 -8 140 -8ZM294 313Q326 313 354 320T408 338T456 363T497 391Q502 415 505 444T508 502Q508 540 497 571T464 626T413 662T343 675Q297 675 259 659T194 614T152 543T137 451Q137 383
178 348T294 313Z" />
<glyph unicode=":" glyph-name="colon" horiz-adv-x="157" d="M24 -8Q10 -8 2 1T-6 21Q-6 35 4 44T28 54Q42 54 50 45T58 25Q58 11 48 2T24 -8ZM104 310Q90 310 82 319T74 339Q74 353 84 362T108 372Q122 372 130 363T138 343Q138 329 128 320T104 310Z" />
<glyph unicode=";" glyph-name="semicolon" horiz-adv-x="157" d="M-45 -111Q-25 -73 -12 -34T10 52H53Q32 -42 -19 -111H-45ZM102 310Q88 310 80 319T72 339Q72 353 82 362T106 372Q120 372 128 363T136 343Q136 329 126 320T102 310Z" />
<glyph unicode="&lt;" glyph-name="less" horiz-adv-x="467" d="M71 331V359L412 519V486L105 345L412 204V171L71 331Z" />
<glyph unicode="=" glyph-name="equal" horiz-adv-x="470" d="M78 403H423V374H78V403ZM78 259H423V230H78V259Z" />
<glyph unicode="&gt;" glyph-name="greater" horiz-adv-x="467" d="M83 203L390 344L83 485V518L424 358V330L83 170V203Z" />
<glyph unicode="?" glyph-name="question" horiz-adv-x="391" d="M147 175Q142 184 137 199T131 229Q131 258 139 280T165 321T208 358T269 398Q296 415 321 432T365 470T395 516T407 573Q407 601 396 620T367 652T326 669T280 675Q255 675 233 671T193 658T166
635T156 602Q156 590 157 583T161 567H137Q132 572 127 582T122 605Q122 627 134 645T169 676T221 696T286 703Q314 703 342 696T393 672T430 631T444 572Q444 537 431 509T396 456T343 411T280 370Q250 353 228 338T191 306T169 269T161 223Q161 211 164 198T171
175H147ZM128 -8Q114 -8 106 1T98 21Q98 35 108 44T132 54Q146 54 154 45T162 25Q162 11 152 2T128 -8Z" />
<glyph unicode="@" glyph-name="at" horiz-adv-x="850" d="M396 -142Q219 -142 131 -60T42 180Q42 276 74 365T166 522T308 631T491 672Q563 672 621 652T721 592T784 496T806 367Q806 290 788 230T737 126T662 61T568 38Q524 38 507 56T488 104H485Q445 69 411
55T343 41Q299 41 268 72T237 168Q237 223 255 278T306 379T384 452T482 480Q522 480 545 468T588 439L607 470H626L528 134Q523 117 523 106Q523 88 534 76T574 64Q618 64 654 85T717 145T759 241T774 367Q774 500 701 573T490 647Q394 647 317 609T186 505T103
356T73 179Q73 33 153 -41T398 -116Q462 -116 518 -105T622 -74L618 -98Q573 -118 518 -130T396 -142ZM356 71Q388 71 421 85T491 131L572 408Q555 428 535 440T479 453Q433 453 395 427T330 359T289 267T274 167Q274 118 296 95T356 71Z" />
<glyph unicode="A" glyph-name="A" horiz-adv-x="596" d="M-59 22L6 31L423 693H458L481 31L545 22L539 0H353L359 22L442 31L436 230H167L42 31L121 22L115 0H-65L-59 22ZM184 257H435L423 633H421L184 257Z" />
<glyph unicode="B" glyph-name="B" horiz-adv-x="566" d="M-26 22L62 31L222 663L136 671L140 693H362Q459 693 508 656T558 548Q558 510 546 479T511 424T458 385T392 364V361Q449 353 488 318T528 219Q528 178 512 139T463 68T384 19T274 0H-31L-26 22ZM273
29Q323 29 363 43T430 82T472 143T487 220Q487 286 444 316T321 347H182L101 29H273ZM319 374Q359 374 395 385T458 417T502 471T518 548Q518 609 480 636T357 664H262L189 374H319Z" />
<glyph unicode="C" glyph-name="C" horiz-adv-x="593" d="M313 -11Q253 -11 204 4T121 51T67 130T48 242Q48 300 62 355T99 458T154 547T219 614Q273 658 333 681T459 704Q522 704 560 695T624 674L604 528H582L587 649Q569 657 539 666T456 675Q396 675 341 653T239
590Q171 528 131 437T90 241Q90 132 146 75T315 18Q363 18 398 26T465 46L509 166H533L493 20Q458 6 410 -2T313 -11Z" />
<glyph unicode="D" glyph-name="D" horiz-adv-x="655" d="M-28 22L62 31L222 662L135 671L141 693H382Q524 693 590 630T657 448Q657 358 630 277T550 135T419 37T240 0H-34L-28 22ZM240 29Q311 29 368 48T472 103Q543 159 579 251T616 453Q616 562 559 613T377
664H262L101 29H240Z" />
<glyph unicode="E" glyph-name="E" horiz-adv-x="560" d="M-26 22L62 31L222 662L136 671L140 693H589L575 539H551L550 664H262L187 370H370L401 465H425L378 247H354L366 342H180L101 29H436L491 172H514L467 0H-31L-26 22Z" />
<glyph unicode="F" glyph-name="F" horiz-adv-x="525" d="M-26 22L62 30L222 662L136 671L140 693H589L576 536H552L549 664H262L185 360H362L393 456H417L370 238H346L358 333H178L101 31L204 22L199 0H-31L-26 22Z" />
<glyph unicode="G" glyph-name="G" horiz-adv-x="642" d="M312 -11Q258 -11 210 4T126 51T70 130T49 241Q49 298 62 352T97 453T151 540T217 609Q270 654 331 679T459 704Q524 704 563 695T631 672L612 532H588L592 647Q574 659 543 667T455 676Q397 676 341 652T236
585Q204 556 177 519T131 437T102 344T91 242Q91 187 107 145T152 75T221 33T312 18Q360 18 395 26T459 46L514 262L419 270L425 292H640L634 270L553 262L492 21Q454 7 409 -2T312 -11Z" />
<glyph unicode="H" glyph-name="H" horiz-adv-x="697" d="M-28 22L63 30L224 662L136 671L142 693H365L359 671L263 662L189 372H577L650 662L557 671L563 693H785L779 671L690 662L530 30L616 22L610 0H394L400 22L490 30L570 345H182L102 30L195 22L189 0H-34L-28 22Z" />
<glyph unicode="I" glyph-name="I" horiz-adv-x="277" d="M-28 22L66 30L226 663L135 671L141 693H364L358 671L265 663L105 30L195 22L189 0H-34L-28 22Z" />
<glyph unicode="J" glyph-name="J" horiz-adv-x="392" d="M83 -7Q36 -7 7 10T-23 62Q-23 79 -16 95T0 119H27Q22 108 18 96T14 69Q14 47 30 35T82 23Q193 23 229 169L354 662L264 671L270 693H491L485 671L393 662L266 161Q247 84 203 39T83 -7Z" />
<glyph unicode="K" glyph-name="K" horiz-adv-x="612" d="M-30 22L61 30L222 663L135 671L139 693H363L359 671L261 663L100 30L194 22L189 0H-34L-30 22ZM236 335L239 349L577 663L504 671L509 693H683L678 671L620 664L273 343L455 31L535 22L531 0H430L236 335Z" />
<glyph unicode="L" glyph-name="L" horiz-adv-x="527" d="M-29 22L59 30L219 663L133 671L137 693H363L358 671L258 663L97 29H401L453 175H477L433 0H-34L-29 22Z" />
<glyph unicode="M" glyph-name="M" horiz-adv-x="810" d="M-29 22L64 31L225 663L137 671L143 693H290L359 79H361L743 693H898L892 671L800 663L640 31L727 22L722 0H510L515 22L601 31L761 658H759L356 14H331L259 658H257L97 31L187 22L182 0H-34L-29 22Z" />
<glyph unicode="N" glyph-name="N" horiz-adv-x="686" d="M-29 22L62 31L222 662L135 671L141 693H283L505 72H507L656 662L563 671L569 693H779L773 671L689 662L521 0H491L256 659H254L95 31L191 22L186 0H-34L-29 22Z" />
<glyph unicode="O" glyph-name="O" horiz-adv-x="653" d="M276 -10Q225 -10 183 6T110 54T63 130T46 232Q46 329 77 414T161 564T283 665T428 703Q481 703 523 686T594 638T640 562T656 461Q656 364 626 279T545 129T424 28T276 -10ZM278 19Q341 19 394 45T490
116Q520 148 543 188T582 273T607 368T616 467Q616 571 565 622T427 674Q369 674 319 651T225 586Q193 554 168 513T124 425T96 328T86 225Q86 127 136 73T278 19Z" />
<glyph unicode="P" glyph-name="P" horiz-adv-x="538" d="M-27 22L62 31L223 663L136 671L142 693H383Q434 693 470 681T530 647T565 595T576 531Q576 473 557 432T503 363T422 323T324 310Q292 310 269 313T229 321L235 345Q252 340 271 339T322 337Q424 337
480 385T536 528Q536 556 528 581T502 624T455 652T384 663H262L101 31L201 22L195 0H-33L-27 22Z" />
<glyph unicode="Q" glyph-name="Q" horiz-adv-x="653" d="M225 -6Q190 3 158 19T100 64T61 134T46 232Q46 329 77 414T161 564T283 665T428 703Q481 703 523 686T594 638T640 562T656 461Q656 364 627 282T552 138T446 40T326 -1V-2L611 -61L601 -96L225 -6ZM278
19Q341 19 394 45T490 116Q520 148 543 188T582 273T607 368T616 467Q616 571 565 622T427 674Q369 674 319 651T225 586Q193 554 168 513T124 425T96 328T86 225Q86 127 136 73T278 19Z" />
<glyph unicode="R" glyph-name="R" horiz-adv-x="600" d="M-30 22L61 31L222 662L136 671L140 693H386Q438 693 474 682T532 650T565 603T575 543Q575 455 522 401T367 333V331L471 30L542 22L538 0H437L329 327H177L100 31L188 22L183 0H-34L-30 22ZM319 354Q370
354 410 368T477 406T519 465T534 539Q534 566 527 588T502 627T455 653T380 663H261L182 354H319Z" />
<glyph unicode="S" glyph-name="S" horiz-adv-x="476" d="M182 -8Q122 -8 74 6T-4 37L18 166H42L36 61Q59 45 96 33T188 21Q239 21 274 35T332 71T364 123T374 183Q374 209 369 228T352 263T318 296T264 334L222 361Q199 376 180 392T147 427T126 471T118 525Q118
563 131 595T171 652T237 689T327 703Q385 703 420 692T482 669L470 549H447L444 645Q430 653 403 663T325 674Q242 674 199 635T156 532Q156 508 160 489T175 453T202 421T244 390L287 363Q316 345 339 327T379 289T404 245T413 188Q413 152 401 117T361 54T289
9T182 -8Z" />
<glyph unicode="T" glyph-name="T" horiz-adv-x="552" d="M108 22L207 30L367 664H161L111 529H87L134 693H646L619 529H595L608 664H407L246 30L341 22L335 0H102L108 22Z" />
<glyph unicode="U" glyph-name="U" horiz-adv-x="676" d="M301 -9Q198 -9 143 33T87 156Q87 190 97 227L208 663L125 671L131 693H350L344 671L248 663L136 226Q126 189 126 156Q126 87 171 54T304 21Q355 21 393 33T459 69T506 131T537 219L647 663L560 671L566
693H769L763 671L680 663L568 212Q542 104 479 48T301 -9Z" />
<glyph unicode="V" glyph-name="V" horiz-adv-x="614" d="M172 662L110 671L116 693H304L298 671L209 662L249 65H251L612 662L532 671L538 693H718L712 671L649 662L247 0H217L172 662Z" />
<glyph unicode="W" glyph-name="W" horiz-adv-x="917" d="M174 662L113 671L117 693H303L299 671L212 662L220 75H222L554 693H579L595 71H597L914 662L837 671L841 693H1023L1018 671L951 662L595 0H561L545 608H544L217 0H184L174 662Z" />
<glyph unicode="X" glyph-name="X" horiz-adv-x="640" d="M-31 22L40 31L331 360L224 663L153 671L159 693H355L349 671L263 663L362 383L600 663L523 671L529 693H721L715 671L641 663L374 353L489 30L560 22L555 0H358L363 22L450 30L343 330L80 31L161 22L156
0H-36L-31 22Z" />
<glyph unicode="Y" glyph-name="Y" horiz-adv-x="571" d="M126 22L216 31L289 316L173 662L115 671L121 693H303L297 671L213 662L316 345H318L572 662L492 671L498 693H676L670 671L609 662L327 312L255 31L342 22L337 0H121L126 22Z" />
<glyph unicode="Z" glyph-name="Z" horiz-adv-x="539" d="M-19 24L540 661V664H175L130 527H106L147 693H596L591 669L32 32V29H420L463 167H487L450 0H-24L-19 24Z" />
<glyph unicode="[" glyph-name="bracketleft" horiz-adv-x="282" d="M202 734H365L360 712L232 703L32 -90L158 -98L152 -120H-11L202 734Z" />
<glyph unicode="\" glyph-name="backslash" horiz-adv-x="306" d="M131 733H160L227 -120H198L131 733Z" />
<glyph unicode="]" glyph-name="bracketright" horiz-adv-x="282" d="M-44 -98L83 -90L282 703L158 712L163 734H325L112 -120H-50L-44 -98Z" />
<glyph unicode="^" glyph-name="asciicircum" horiz-adv-x="369" d="M282 693H308L393 473H368L288 654L118 473H90L282 693Z" />
<glyph unicode="_" glyph-name="underscore" horiz-adv-x="309" d="M-87 -93H230L223 -120H-94L-87 -93Z" />
<glyph unicode="`" glyph-name="grave" horiz-adv-x="496" d="M246 688L266 716L413 612L401 593L246 688Z" />
<glyph unicode="a" glyph-name="a" horiz-adv-x="491" d="M98 -7Q56 -7 32 22T8 105Q8 153 21 201T57 295T112 379T180 446T258 491T340 508Q369 508 394 499T434 478H436L452 511H480L329 28L424 31L419 12Q409 9 395 6T365 0T336 -5T312 -7Q301 -7 295 0T293
27L337 158H335Q313 129 285 100T225 47T161 8T98 -7ZM100 27Q129 27 162 43T229 84T293 142T348 208L423 446Q409 461 386 470T336 480Q299 480 264 464T196 421T136 358T88 281T57 197T45 113Q45 27 100 27Z" />
<glyph unicode="b" glyph-name="b" horiz-adv-x="491" d="M168 -9Q122 -9 81 1T8 33L210 704L113 707L118 728L250 743L256 738L137 344H139Q199 425 261 470T377 516Q423 516 451 483T479 387Q479 309 454 238T387 112T288 24T168 -9ZM170 19Q225 19 274 49T360
130T419 244T441 377Q441 427 423 455T367 484Q342 484 312 470T250 430T184 366T119 283L49 49Q72 35 102 27T170 19Z" />
<glyph unicode="c" glyph-name="c" horiz-adv-x="401" d="M158 -7Q89 -7 54 36T18 146Q18 224 46 292T118 409T218 487T328 516Q371 516 395 500T420 455Q420 437 413 421T396 390H370Q377 407 381 421T385 451Q385 488 321 488Q274 488 227 462T142 391T79 283T55
148Q55 92 82 58T167 24Q218 24 259 44T337 93L333 64Q318 52 300 40T260 17T213 0T158 -7Z" />
<glyph unicode="d" glyph-name="d" horiz-adv-x="498" d="M109 -7Q63 -7 38 24T12 115Q12 163 25 212T62 305T117 388T185 455T262 500T342 516Q375 516 401 506T443 485L508 704L411 707L416 728L548 743L554 738L343 28L436 31L431 12Q420 9 407 6T379 0T350
-5T326 -7Q315 -7 309 0T307 27L348 156H346Q325 129 297 101T238 48T173 9T109 -7ZM117 25Q144 25 176 41T242 83T305 141T360 204L433 451Q418 465 394 476T340 488Q285 488 233 455T140 370T74 253T49 125Q49 79 64 52T117 25Z" />
<glyph unicode="e" glyph-name="e" horiz-adv-x="417" d="M160 -7Q126 -7 100 4T55 36T28 85T18 146Q18 225 46 293T119 410T217 488T321 516Q367 516 394 492T421 423Q421 373 391 339T310 283T196 249T63 230Q59 210 57 191T55 151Q55 93 82 59T169 24Q225 24
271 47T354 99L350 69Q336 57 317 44T273 19T221 0T160 -7ZM317 488Q280 488 243 471T172 423T112 350T70 256Q131 263 188 273T289 302T359 349T385 421Q385 451 367 469T317 488Z" />
<glyph unicode="f" glyph-name="f" horiz-adv-x="268" d="M87 498L155 509Q170 573 193 617T245 689T306 729T370 741Q405 741 425 728T446 687Q446 673 440 658T428 635H402Q405 644 408 657T412 682Q412 713 367 713Q304 713 261 663T192 508H324L317 478H185L77
-5Q55 -101 19 -149T-76 -198Q-105 -198 -124 -185T-143 -150Q-143 -136 -137 -125T-126 -108H-104Q-106 -116 -108 -126T-110 -145Q-110 -170 -74 -170Q-56 -170 -40 -163T-10 -138T17 -91T40 -16L148 478H83L87 498Z" />
<glyph unicode="g" glyph-name="g" horiz-adv-x="404" d="M129 -197Q81 -197 41 -190T-29 -168T-74 -132T-91 -83Q-91 -56 -76 -33T-36 9T23 43T94 71Q88 79 83 89T77 116Q77 145 90 166T118 202Q64 231 64 304Q64 351 81 390T126 456T191 499T266 515Q297 515
324 504L463 512L455 481L352 487Q369 472 378 450T387 398Q387 351 370 312T325 245T261 202T186 187Q157 187 137 194Q128 183 119 168T110 133Q110 120 114 111T129 92T161 75T213 54Q251 40 277 28T318 2T341 -28T348 -65Q348 -91 335 -115T294 -157T226 -186T129
-197ZM203 22Q178 31 158 39T120 56Q85 45 54 31T-1 0T-39 -36T-53 -79Q-53 -125 -3 -147T132 -169Q180 -169 214 -160T269 -137T301 -106T312 -70Q312 -58 309 -47T294 -26T262 -4T203 22ZM188 213Q221 213 250 227T302 265T338 324T352 400Q352 443 330 466T264
489Q231 489 201 475T149 437T113 378T99 303Q99 259 121 236T188 213Z" />
<glyph unicode="h" glyph-name="h" horiz-adv-x="506" d="M276 -5Q254 -5 241 2T217 17L221 36Q231 32 243 29T266 25Q287 25 308 33T346 70Q368 107 387 153T421 247T444 340T453 418Q453 483 405 483Q377 483 342 464T270 414T199 348T138 278L54 0H17L230 704L133
707L138 728L270 743L276 738L155 336H157Q187 370 219 402T286 460T352 501T415 516Q453 516 472 491T492 422Q492 384 482 334T454 233T416 134T373 55Q351 23 328 9T276 -5Z" />
<glyph unicode="i" glyph-name="i" horiz-adv-x="227" d="M51 -7Q40 -7 34 0T32 27L168 480L74 478L79 499L209 517L214 512L69 28L163 31L158 12Q147 9 133 6T104 0T75 -5T51 -7ZM225 635Q212 635 205 643T197 662Q197 675 205 684T227 693Q240 693 247 685T255
666Q255 653 247 644T225 635Z" />
<glyph unicode="j" glyph-name="j" horiz-adv-x="222" d="M-102 -198Q-129 -198 -152 -185T-176 -145Q-176 -130 -170 -120T-155 -101H-133Q-137 -108 -140 -118T-143 -140Q-143 -155 -131 -162T-99 -170Q-60 -170 -34 -143T12 -54L172 480L78 478L83 499L213
517L218 512L49 -45Q27 -118 -7 -158T-102 -198ZM229 635Q216 635 209 643T201 662Q201 675 209 684T231 693Q244 693 251 685T259 666Q259 653 251 644T229 635Z" />
<glyph unicode="k" glyph-name="k" horiz-adv-x="463" d="M229 704L132 707L137 728L269 743L275 738L53 0H16L229 704ZM445 482Q428 482 410 473T364 441T300 378T207 275L317 28L404 31L399 12Q379 6 354 0T315 -7Q301 -7 292 5T272 43L173 267L175 277Q239
352 281 398T354 471T405 506T449 515Q465 515 474 510T494 496L489 474Q481 478 471 480T445 482Z" />
<glyph unicode="l" glyph-name="l" horiz-adv-x="234" d="M50 -7Q38 -7 32 0T31 27L227 704L128 707L133 728L267 743L273 738L66 27L165 31L160 12Q150 9 136 6T105 0T75 -5T50 -7Z" />
<glyph unicode="m" glyph-name="m" horiz-adv-x="793" d="M620 -7Q609 -7 602 0T600 27L715 389Q727 426 727 448Q727 483 691 483Q674 483 653 473T607 446T558 408T508 362T464 314T428 269L344 0H307L428 389Q439 425 439 445Q439 483 404 483Q377 483 339
459T262 400T187 324T129 250L53 0H16L163 480L73 478L78 499L202 517L207 512L143 309H145Q173 346 208 383T281 449T353 497T419 516Q448 516 462 499T476 450Q476 437 474 422T466 390L447 330H450Q473 358 504 391T571 451T641 497T707 516Q764 516 764 453Q764
429 753 391L637 26L728 29L723 10Q712 7 699 4T671 -1T644 -5T620 -7Z" />
<glyph unicode="n" glyph-name="n" horiz-adv-x="518" d="M345 -7Q334 -7 328 0T326 27L441 389Q452 427 452 446Q452 483 419 483Q391 483 351 458T268 397T188 319T127 243L53 0H16L163 480L73 478L78 499L202 517L207 512L141 301H143Q172 339 209 377T286
446T363 496T431 516Q460 516 475 499T490 450Q490 425 479 390L363 28L453 31L449 12Q438 9 425 6T397 0T369 -5T345 -7Z" />
<glyph unicode="o" glyph-name="o" horiz-adv-x="476" d="M171 -9Q98 -9 59 37T20 158Q20 236 45 301T110 414T202 489T305 516Q379 516 417 471T455 350Q455 273 431 207T366 93T275 18T171 -9ZM173 19Q219 19 263 45T342 117T398 224T419 357Q419 417 390 452T303
488Q257 488 213 462T134 391T78 284T57 152Q57 92 86 56T173 19Z" />
<glyph unicode="p" glyph-name="p" horiz-adv-x="512" d="M-110 -175L-30 -169L165 480L75 478L80 499L204 517L209 512L154 336H156Q219 424 282 470T399 516Q444 516 472 483T500 387Q500 309 475 238T407 112T308 24T189 -9Q150 -9 120 0T66 25L8 -168L93 -175L88
-195H-115L-110 -175ZM191 19Q246 19 295 49T381 130T441 244T463 377Q463 425 444 453T387 482Q337 482 273 429T144 284L77 62Q100 42 127 31T191 19Z" />
<glyph unicode="q" glyph-name="q" horiz-adv-x="473" d="M156 -175L246 -169L344 149H342Q322 122 294 95T235 45T171 8T107 -7Q61 -7 37 24T12 115Q12 163 25 212T61 305T116 388T185 455T263 500T346 516Q390 516 422 508T481 486L283 -170L361 -175L357 -195H152L156
-175ZM118 24Q145 24 177 40T242 83T305 141T359 204L437 464Q421 473 399 480T342 488Q287 488 235 455T141 370T74 253T49 125Q49 79 65 52T118 24Z" />
<glyph unicode="r" glyph-name="r" horiz-adv-x="392" d="M163 480L73 478L78 499L202 517L207 512L138 294H140Q162 328 192 367T256 439T322 494T385 516Q405 516 416 505T427 472Q427 455 420 434T401 396H375Q381 411 385 430T390 461Q390 470 386 476T372
482Q348 482 316 458T250 398T183 317T123 231L53 0H16L163 480Z" />
<glyph unicode="s" glyph-name="s" horiz-adv-x="353" d="M125 -9Q94 -9 68 -3T24 15T-5 41T-16 73Q-16 90 -9 103T6 128H33Q28 116 25 105T21 80Q21 51 48 35T123 18Q156 18 182 27T226 51T253 86T263 131Q263 151 256 166T237 194T207 221T169 250Q147 267 130
282T101 312T83 343T76 380Q76 410 89 435T124 477T176 505T239 515Q293 515 324 498T356 447Q356 430 350 415T334 387H308Q321 416 321 442Q321 465 297 476T236 488Q210 488 187 481T147 460T120 428T110 386Q110 370 115 357T131 330T158 304T195 273Q217 255
236 240T269 209T290 176T298 136Q298 106 285 80T249 34T195 3T125 -9Z" />
<glyph unicode="t" glyph-name="t" horiz-adv-x="266" d="M81 498L156 509L193 634H230L192 508H316L309 478H183L68 98Q65 87 63 78T61 61Q61 24 103 24Q132 24 159 32T209 51L204 27Q184 15 156 4T94 -7Q63 -7 45 9T26 57Q26 75 34 102L146 478H76L81 498Z" />
<glyph unicode="u" glyph-name="u" horiz-adv-x="519" d="M101 -6Q35 -6 35 62Q35 86 44 119L159 480L71 478L76 499L200 517L205 512L81 119Q71 88 71 66Q71 45 81 36T108 27Q134 27 171 47T249 99T325 167T387 237L468 509H505L360 28L452 31L448 12Q438 9 424
6T395 0T366 -5T342 -7Q330 -7 324 0T323 27L373 182H371Q339 146 303 112T230 52T161 10T101 -6Z" />
<glyph unicode="v" glyph-name="v" horiz-adv-x="427" d="M98 0Q102 56 106 112T113 223T118 326T120 415Q120 434 120 450T118 481L37 478L43 499Q59 504 84 509T129 515Q142 515 148 509T155 482Q155 472 155 461T156 438Q156 398 155 351T150 252T143 148T134
45H136Q189 99 237 158T323 276T388 388T423 481L345 478L349 498Q364 504 390 510T437 516Q459 516 459 492Q459 474 447 442T413 369T361 281T293 185T213 89T125 0H98Z" />
<glyph unicode="w" glyph-name="w" horiz-adv-x="642" d="M105 0Q113 98 117 194T121 368Q121 434 118 481L37 478L42 499Q58 504 84 509T130 515Q143 515 149 509T156 482Q157 462 157 440T157 393Q157 317 154 226T141 46H142Q172 78 202 114T260 187T314 262T359
334Q360 359 360 382T360 426Q360 441 360 455T359 481L279 478L284 499Q300 504 324 509T369 515Q382 515 388 509T395 482Q395 470 395 457T396 429Q396 389 395 343T391 247T385 146T376 46H377Q428 99 473 159T553 279T610 391T640 481L560 478L564 498Q579
504 604 510T653 516Q663 516 669 511T675 492Q675 473 664 441T633 367T585 278T523 182T449 86T366 0H339Q345 72 350 144T357 282Q337 249 311 212T256 138T195 66T132 0H105Z" />
<glyph unicode="x" glyph-name="x" horiz-adv-x="461" d="M17 -7Q-7 -7 -20 1T-41 19L-36 39Q-28 34 -15 30T12 25Q33 25 52 38T94 81T148 155T222 265L166 480L75 478L79 501L189 516L194 511L253 286Q289 344 317 387T369 459T416 501T462 515Q482 515 493 508T512
493L507 473Q499 478 488 481T463 484Q444 484 424 469T379 425T326 353T261 254L321 26L413 29L408 10Q398 7 385 4T360 -1T336 -5T318 -7Q301 -7 295 4T283 33L230 233Q189 166 159 121T106 47T61 6T17 -7Z" />
<glyph unicode="y" glyph-name="y" horiz-adv-x="437" d="M-117 -199Q-148 -199 -167 -185T-185 -144Q-185 -124 -176 -109T-158 -83H-133Q-139 -91 -145 -106T-152 -139Q-152 -155 -141 -162T-109 -169Q-82 -169 -52 -158T8 -128T69 -82T128 -23Q133 41 135 102T138
221Q138 304 134 370T125 481L47 478L53 499Q69 504 94 509T139 515Q151 515 156 509T164 482Q168 440 170 378T173 244Q173 187 171 129T163 19H165Q201 64 244 125T327 251T397 375T436 481L355 478L359 498Q374 504 400 510T449 516Q471 516 471 492Q471 470
457 434T420 353T366 259T304 161T238 69T177 -8Q142 -49 106 -84T33 -144T-41 -184T-117 -199Z" />
<glyph unicode="z" glyph-name="z" horiz-adv-x="411" d="M-13 0Q-15 8 -16 15T-17 30Q-17 53 -8 71T16 103L368 422Q300 443 247 463T156 484Q124 484 108 460T99 394H73Q67 409 67 424Q67 442 72 458T90 487T119 508T161 516Q209 516 265 495T389 441Q403 458
408 473T414 508H442Q444 485 435 461T397 411L46 95Q96 79 133 67T196 45T239 32T269 27Q306 27 317 49T331 107H362Q359 84 353 64T336 28T308 3T266 -6Q230 -6 175 14T29 74H26Q17 61 14 43T15 0H-13Z" />
<glyph unicode="{" glyph-name="braceleft" horiz-adv-x="349" d="M217 -120Q135 -112 101 -88T67 -26Q67 -1 81 34T112 107T143 178T157 236Q157 257 136 274T52 301L59 335Q102 338 129 345T171 362T194 386T204 415Q209 436 211 463T216 519T220 575T228 624Q234
649 247 669T284 702T343 723T430 733L424 711Q383 707 356 701T310 684T282 658T267 622Q262 602 259 576T254 523T249 468T241 419Q237 401 230 386T207 357T166 334T99 318V315Q155 301 173 279T192 233Q192 209 179 174T149 102T120 31T106 -26Q106 -57 131
-73T223 -98L217 -120Z" />
<glyph unicode="|" glyph-name="bar" horiz-adv-x="204" d="M103 733H131V-120H103V733Z" />
<glyph unicode="}" glyph-name="braceright" horiz-adv-x="349" d="M163 733Q245 725 279 701T313 639Q313 613 299 578T268 506T237 435T223 377Q223 356 244 339T328 312L321 278Q277 275 251 268T209 251T186 227T176 198Q171 177 169 150T164 94T160 38T152
-11Q146 -37 133 -56T96 -89T37 -110T-50 -120L-44 -98Q-3 -94 24 -88T70 -71T98 -45T113 -9Q118 10 121 36T126 90T131 145T139 194Q143 212 150 227T173 256T214 279T281 295V298Q225 311 207 333T188 380Q188 404 201 439T231 511T260 582T274 639Q274 670 249
686T157 711L163 733Z" />
<glyph unicode="~" glyph-name="asciitilde" horiz-adv-x="367" d="M42 265Q64 304 87 322T142 340Q158 340 174 334T205 319T235 305T263 298Q304 298 339 351L359 338Q339 300 316 282T261 264Q244 264 228 270T196 284T166 298T138 305Q117 305 99 292T63 252L42 265Z" />
<glyph unicode="&#xa0;" glyph-name="uni00A0" horiz-adv-x="191" />
<glyph unicode="&#xa1;" glyph-name="exclamdown" horiz-adv-x="197" d="M37 -120H-5L130 407H154L37 -120ZM176 581Q190 581 198 572T206 552Q206 538 196 529T172 519Q158 519 150 528T142 548Q142 562 152 571T176 581Z" />
<glyph unicode="&#xa2;" glyph-name="cent" horiz-adv-x="416" d="M133 -3Q79 8 49 48T18 146Q18 195 29 240T61 323T108 393T165 449Q239 506 320 515L344 582H374L350 516Q390 514 413 498T436 455Q436 437 429 421T412 390H387Q394 407 398 421T402 451Q402
470 386 479T340 489L172 23H177Q229 23 272 44T353 93L349 65Q335 53 316 41T273 18T224 0T168 -7H161L121 -118H92L133 -3ZM56 148Q56 100 77 68T143 26L310 487Q263 481 218 453T136 380T78 276T56 148Z" />
<glyph unicode="&#xa3;" glyph-name="sterling" horiz-adv-x="487" d="M70 360H147L175 483Q188 542 212 583T268 651T338 689T417 701Q468 701 501 683T535 628Q535 614 529 600T515 574H488Q499 599 499 624Q499 650 476 661T413 673Q379 673 349 664T293 632T247
572T213 479L184 360H391L385 330H177L151 220Q141 177 130 148T104 99T72 64T34 36V35H416L405 0H-29L-23 27Q4 41 26 57T64 95T93 145T113 211L140 330H64L70 360Z" />
<glyph unicode="&#xa5;" glyph-name="yen" horiz-adv-x="578" d="M116 352H283L180 662L129 671L135 693H308L302 671L218 662L316 358H318L572 662L493 671L499 693H670L664 671L610 662L346 352H513L507 325H326L303 240H484L478 213H296L248 31L336 22L331
0H114L119 22L210 31L258 213H81L87 240H265L288 325H110L116 352Z" />
<glyph unicode="&#xa6;" glyph-name="brokenbar" horiz-adv-x="207" d="M105 279H135V-120H105V279ZM105 733H135V371H105V733Z" />
<glyph unicode="&#xa7;" glyph-name="section" horiz-adv-x="447" d="M141 -126Q111 -126 89 -123T48 -116T16 -105T-13 -92L3 16H27L24 -73Q34 -78 44 -83T67 -91T99 -97T143 -99Q206 -99 247 -66T288 29Q288 61 271 89T216 137L144 175Q99 198 74 230T48 302Q48
335 61 359T96 402T149 431T213 450Q159 489 159 553Q159 587 172 615T210 662T266 692T337 703Q383 703 412 695T462 674L448 576H424L427 654Q412 663 390 669T334 676Q305 676 280 669T236 648T207 613T196 562Q196 530 210 506T257 464L328 426Q373 402 401
371T430 298Q430 232 386 196T269 145Q297 123 311 95T325 36Q325 0 312 -29T274 -80T216 -114T141 -126ZM242 432Q212 428 184 420T135 396T100 360T86 309Q86 276 104 251T165 204L238 166L241 164Q272 169 299 178T347 201T380 237T392 289Q392 324 371 349T310
396L242 432Z" />
<glyph unicode="&#xa8;" glyph-name="dieresis" horiz-adv-x="496" d="M285 635Q272 635 265 643T257 662Q257 675 265 684T287 693Q300 693 307 685T315 666Q315 653 307 644T285 635ZM423 635Q410 635 403 643T395 662Q395 675 403 684T425 693Q438 693 445
685T453 666Q453 653 445 644T423 635Z" />
<glyph unicode="&#xa9;" glyph-name="copyright" horiz-adv-x="804" d="M426 -11Q351 -11 287 17T175 93T101 206T74 345Q74 419 100 484T174 597T286 673T426 701Q501 701 566 673T678 597T753 484T781 345Q781 271 754 206T679 93T566 17T426 -11ZM426 13Q496
13 555 39T658 110T726 215T751 345Q751 414 727 475T659 581T556 652T426 678Q355 678 296 652T194 581T127 475T103 345Q103 276 127 216T193 110T295 39T426 13ZM436 158Q396 158 363 169T306 202T269 259T256 341Q256 393 270 430T310 491T369 526T441 537Q473
537 498 532T544 520L550 434H528L515 499Q501 506 483 509T439 513Q373 513 334 472T295 345Q295 264 331 223T438 181Q464 181 483 184T516 194L531 267H553L546 177Q524 169 497 164T436 158Z" />
<glyph unicode="&#xaa;" glyph-name="ordfeminine" horiz-adv-x="453" d="M137 230Q100 230 80 255T59 332Q59 397 86 462T156 580T254 664T362 697Q390 697 411 689T445 671H447L462 699H491L358 263L444 266L440 246Q431 243 418 240T391 235T364 232T342 230Q330
230 324 238T324 269L361 381H359Q339 352 313 325T258 277T197 243T137 230ZM146 262Q172 262 202 276T263 314T322 368T374 431L437 638Q424 652 405 661T359 670Q310 670 263 639T178 560T119 452T96 335Q96 295 109 279T146 262Z" />
<glyph unicode="&#xab;" glyph-name="guillemotleft" horiz-adv-x="358" d="M41 245L45 263L190 442H221L77 249L131 63H103L41 245ZM178 245L182 263L327 442H358L213 249L268 63H240L178 245Z" />
<glyph unicode="&#xae;" glyph-name="registered" horiz-adv-x="411" d="M277 335Q238 335 205 349T147 388T110 446T96 518Q96 555 109 588T147 646T204 685T277 700Q316 700 349 686T406 647T444 589T458 518Q458 480 444 447T406 388T349 349T277 335ZM277
356Q312 356 341 368T390 403T422 454T433 518Q433 551 422 580T391 632T341 667T277 680Q241 680 212 667T163 632T132 581T121 518Q121 484 132 455T163 403T212 369T277 356ZM195 444L220 447V596L195 599V614H281Q311 614 330 602T349 564Q349 542 337 530T305
513V512L346 447L371 444V430H326L279 505H248V447L271 444V430H195V444ZM283 525Q305 525 313 535T321 563Q321 581 312 588T280 595H248V525H283Z" />
<glyph unicode="&#xaf;" glyph-name="macron" horiz-adv-x="496" d="M243 676H459L453 649H237L243 676Z" />
<glyph unicode="&#xb0;" glyph-name="degree" horiz-adv-x="347" d="M244 453Q216 453 194 463T157 489T133 525T124 568Q124 597 134 622T163 666T206 695T259 706Q286 706 308 696T346 670T370 634T379 592Q379 562 369 537T340 493T297 464T244 453ZM244 477Q289
477 319 509T349 592Q349 608 343 624T326 653T298 674T258 682Q213 682 184 650T154 568Q154 551 159 535T176 506T204 485T244 477Z" />
<glyph unicode="&#xb4;" glyph-name="acute" horiz-adv-x="496" d="M255 612L422 717L439 686L265 593L255 612Z" />
<glyph unicode="&#xb6;" glyph-name="paragraph" horiz-adv-x="538" d="M325 363Q308 361 293 360T263 358Q228 358 199 367T148 393T114 436T102 494Q102 539 116 575T161 638T239 679T352 693H625L619 671L542 663L347 -120H315L511 665H432L236 -120H204L325 363Z" />
<glyph unicode="&#xb7;" glyph-name="periodcentered" horiz-adv-x="147" d="M91 284Q77 284 69 293T61 313Q61 327 71 336T95 346Q109 346 117 337T125 317Q125 303 115 294T91 284Z" />
<glyph unicode="&#xb8;" glyph-name="cedilla" horiz-adv-x="496" d="M116 -176Q182 -168 212 -154T242 -114Q242 -97 223 -88T160 -76L179 0H205L193 -50Q235 -54 257 -69T279 -109Q279 -184 110 -199L116 -176Z" />
<glyph unicode="&#xba;" glyph-name="ordmasculine" horiz-adv-x="428" d="M209 230Q144 230 109 270T74 376Q74 444 96 502T154 603T235 670T328 695Q394 695 429 655T464 549Q464 480 442 422T383 321T301 254T209 230ZM211 256Q252 256 291 279T360 342T409
436T428 553Q428 606 403 637T326 669Q285 669 246 646T177 583T129 489T110 372Q110 319 134 288T211 256Z" />
<glyph unicode="&#xbb;" glyph-name="guillemotright" horiz-adv-x="358" d="M321 260L317 242L172 63H141L285 256L231 442H259L321 260ZM184 260L180 242L35 63H4L149 256L94 442H122L184 260Z" />
<glyph unicode="&#xbc;" glyph-name="onequarter" horiz-adv-x="799" d="M100 314L170 319L256 659L168 637L173 658L282 698H297L202 319L271 314L266 294H95L100 314ZM716 713H748L98 -40H66L716 713ZM592 120H398L403 142L665 399H692L630 145H699L693 120H624L594
0H562L592 120ZM598 145L648 349H646L439 147V145H598Z" />
<glyph unicode="&#xbd;" glyph-name="onehalf" horiz-adv-x="791" d="M105 314L175 319L261 659L173 637L178 658L287 698H302L207 319L276 314L271 294H100L105 314ZM716 713H748L98 -40H66L716 713ZM448 20L586 128Q650 177 684 217T719 308Q719 344 696 363T635
382Q615 382 597 377T567 362T551 337T551 303H529Q526 308 523 314T520 329Q520 364 554 385T638 406Q688 406 720 380T752 309Q752 258 715 212T606 113L492 29V27H712L704 0H443L448 20Z" />
<glyph unicode="&#xbe;" glyph-name="threequarters" horiz-adv-x="811" d="M171 287Q124 287 96 297T51 318L56 339Q74 330 100 322T167 314Q220 314 255 342T290 423Q290 456 267 474T204 492H165L170 516H208Q255 516 285 541T315 607Q315 675 236 675Q196
675 174 658T159 609H137Q130 619 130 632Q130 661 161 680T239 699Q287 699 316 675T346 608Q346 567 319 540T253 505V503Q282 497 302 476T323 420Q323 391 312 367T280 325T231 297T171 287ZM728 713H760L110 -40H78L728 713ZM602 120H408L413 142L675 399H702L640
145H709L703 120H634L604 0H572L602 120ZM608 145L658 349H656L449 147V145H608Z" />
<glyph unicode="&#xbf;" glyph-name="questiondown" horiz-adv-x="390" d="M270 407Q275 398 280 383T286 353Q286 324 278 302T252 261T208 224T148 184Q121 167 96 150T52 112T22 66T10 9Q10 -19 21 -38T50 -70T91 -87T137 -93Q162 -93 184 -89T224 -76T251
-53T261 -20Q261 -8 260 -1T256 15H280Q285 10 290 0T295 -23Q295 -46 283 -64T248 -94T195 -114T131 -121Q102 -121 74 -114T24 -90T-13 -49T-27 10Q-27 44 -14 73T21 126T74 171T137 212Q167 229 189 244T226 276T248 313T256 359Q256 371 253 384T246 407H270ZM289
590Q303 590 311 581T319 561Q319 547 309 538T285 528Q271 528 263 537T255 557Q255 571 265 580T289 590Z" />
<glyph unicode="&#xc0;" glyph-name="Agrave" horiz-adv-x="596" d="M-59 22L6 31L423 693H458L481 31L545 22L539 0H353L359 22L442 31L436 230H167L42 31L121 22L115 0H-65L-59 22ZM184 257H435L423 633H421L184 257ZM351 806L368 836L519 747L509 727L351 806Z" />
<glyph unicode="&#xc1;" glyph-name="Aacute" horiz-adv-x="596" d="M-59 22L6 31L423 693H458L481 31L545 22L539 0H353L359 22L442 31L436 230H167L42 31L121 22L115 0H-65L-59 22ZM184 257H435L423 633H421L184 257ZM368 747L551 830L564 798L376 727L368 747Z" />
<glyph unicode="&#xc2;" glyph-name="Acircumflex" horiz-adv-x="596" d="M-59 22L6 31L423 693H458L481 31L545 22L539 0H353L359 22L442 31L436 230H167L42 31L121 22L115 0H-65L-59 22ZM184 257H435L423 633H421L184 257ZM327 738L449 821H471L563 736L548
722L457 784L337 722L327 738Z" />
<glyph unicode="&#xc3;" glyph-name="Atilde" horiz-adv-x="596" d="M-59 22L6 31L423 693H458L481 31L545 22L539 0H353L359 22L442 31L436 230H167L42 31L121 22L115 0H-65L-59 22ZM184 257H435L423 633H421L184 257ZM318 751Q335 783 354 799T398 816Q412 816
425 811T452 799T478 788T503 782Q520 782 532 792T560 825L580 815Q563 783 544 766T501 749Q487 749 473 754T446 766T420 777T395 783Q363 783 337 741L318 751Z" />
<glyph unicode="&#xc4;" glyph-name="Adieresis" horiz-adv-x="596" d="M-59 22L6 31L423 693H458L481 31L545 22L539 0H353L359 22L442 31L436 230H167L42 31L121 22L115 0H-65L-59 22ZM184 257H435L423 633H421L184 257ZM372 744Q359 744 352 752T344 771Q344
784 352 793T374 802Q387 802 394 794T402 775Q402 762 394 753T372 744ZM516 744Q503 744 496 752T488 771Q488 784 496 793T518 802Q531 802 538 794T546 775Q546 762 538 753T516 744Z" />
<glyph unicode="&#xc5;" glyph-name="Aring" horiz-adv-x="596" d="M-59 22L6 31L423 693H458L481 31L545 22L539 0H353L359 22L442 31L436 230H167L42 31L121 22L115 0H-65L-59 22ZM184 257H435L423 633H421L184 257ZM444 720Q409 720 390 742T370 792Q370 830
394 852T454 875Q489 875 508 853T528 802Q528 766 504 743T444 720ZM445 743Q469 743 485 759T502 802Q502 821 490 837T453 853Q429 853 413 837T396 792Q396 774 408 759T445 743Z" />
<glyph unicode="&#xc6;" glyph-name="AE" horiz-adv-x="902" d="M-50 22L11 31L523 665L438 671L443 693H933L919 539H895L894 664H612L537 370H714L745 465H769L722 247H698L710 342H530L450 29H780L835 172H858L811 0H318L323 22L411 31L459 217H195L46 31L124
22L119 0H-55L-50 22ZM554 663L217 244H466L573 662L554 663Z" />
<glyph unicode="&#xc7;" glyph-name="Ccedilla" horiz-adv-x="593" d="M188 -176Q254 -168 284 -154T314 -114Q314 -97 295 -88T232 -76L249 -6Q155 9 102 70T48 242Q48 300 62 355T99 458T154 547T219 614Q273 658 333 681T459 704Q522 704 560 695T624 674L604
528H582L587 649Q569 657 539 666T456 675Q396 675 341 653T239 590Q171 528 131 437T90 241Q90 132 146 75T315 18Q363 18 398 26T465 46L509 166H533L493 20Q458 6 410 -2T313 -11Q303 -11 294 -11T275 -9L265 -50Q307 -54 329 -69T351 -109Q351 -184 182 -199L188
-176Z" />
<glyph unicode="&#xc8;" glyph-name="Egrave" horiz-adv-x="560" d="M-26 22L62 31L222 662L136 671L140 693H589L575 539H551L550 664H262L187 370H370L401 465H425L378 247H354L366 342H180L101 29H436L491 172H514L467 0H-31L-26 22ZM306 806L323 836L474 747L464
727L306 806Z" />
<glyph unicode="&#xc9;" glyph-name="Eacute" horiz-adv-x="560" d="M-26 22L62 31L222 662L136 671L140 693H589L575 539H551L550 664H262L187 370H370L401 465H425L378 247H354L366 342H180L101 29H436L491 172H514L467 0H-31L-26 22ZM323 747L506 830L519 798L331
727L323 747Z" />
<glyph unicode="&#xca;" glyph-name="Ecircumflex" horiz-adv-x="560" d="M-26 22L62 31L222 662L136 671L140 693H589L575 539H551L550 664H262L187 370H370L401 465H425L378 247H354L366 342H180L101 29H436L491 172H514L467 0H-31L-26 22ZM282 738L404 821H426L518
736L503 722L412 784L292 722L282 738Z" />
<glyph unicode="&#xcb;" glyph-name="Edieresis" horiz-adv-x="560" d="M-26 22L62 31L222 662L136 671L140 693H589L575 539H551L550 664H262L187 370H370L401 465H425L378 247H354L366 342H180L101 29H436L491 172H514L467 0H-31L-26 22ZM336 744Q323 744 316
752T308 771Q308 784 316 793T338 802Q351 802 358 794T366 775Q366 762 358 753T336 744ZM480 744Q467 744 460 752T452 771Q452 784 460 793T482 802Q495 802 502 794T510 775Q510 762 502 753T480 744Z" />
<glyph unicode="&#xcc;" glyph-name="Igrave" horiz-adv-x="277" d="M-28 22L66 30L226 663L135 671L141 693H364L358 671L265 663L105 30L195 22L189 0H-34L-28 22ZM425 806L442 836L593 747L583 727L425 806Z" />
<glyph unicode="&#xcd;" glyph-name="Iacute" horiz-adv-x="277" d="M-28 22L66 30L226 663L135 671L141 693H364L358 671L265 663L105 30L195 22L189 0H-34L-28 22ZM442 747L625 830L638 798L450 727L442 747Z" />
<glyph unicode="&#xce;" glyph-name="Icircumflex" horiz-adv-x="277" d="M-28 22L66 30L226 663L135 671L141 693H364L358 671L265 663L105 30L195 22L189 0H-34L-28 22ZM401 738L523 821H545L637 736L622 722L531 784L411 722L401 738Z" />
<glyph unicode="&#xcf;" glyph-name="Idieresis" horiz-adv-x="277" d="M-28 22L66 30L226 663L135 671L141 693H364L358 671L265 663L105 30L195 22L189 0H-34L-28 22ZM455 744Q442 744 435 752T427 771Q427 784 435 793T457 802Q470 802 477 794T485 775Q485
762 477 753T455 744ZM599 744Q586 744 579 752T571 771Q571 784 579 793T601 802Q614 802 621 794T629 775Q629 762 621 753T599 744Z" />
<glyph unicode="&#xd0;" glyph-name="Eth" horiz-adv-x="655" d="M57 363H146L222 662L135 671L141 693H382Q524 693 590 630T657 448Q657 358 630 277T550 135T419 37T240 0H-34L-28 22L62 31L138 333H49L57 363ZM240 29Q311 29 368 48T472 103Q543 159 579 251T616
453Q616 562 559 613T377 664H262L185 363H371L363 333H178L101 29H240Z" />
<glyph unicode="&#xd1;" glyph-name="Ntilde" horiz-adv-x="686" d="M-29 22L62 31L222 662L135 671L141 693H283L505 72H507L656 662L563 671L569 693H779L773 671L689 662L521 0H491L256 659H254L95 31L191 22L186 0H-34L-29 22ZM348 751Q365 783 384 799T428
816Q442 816 455 811T482 799T508 788T533 782Q550 782 562 792T590 825L610 815Q593 783 574 766T531 749Q517 749 503 754T476 766T450 777T425 783Q393 783 367 741L348 751Z" />
<glyph unicode="&#xd2;" glyph-name="Ograve" horiz-adv-x="653" d="M276 -10Q225 -10 183 6T110 54T63 130T46 232Q46 329 77 414T161 564T283 665T428 703Q481 703 523 686T594 638T640 562T656 461Q656 364 626 279T545 129T424 28T276 -10ZM278 19Q341 19
394 45T490 116Q520 148 543 188T582 273T607 368T616 467Q616 571 565 622T427 674Q369 674 319 651T225 586Q193 554 168 513T124 425T96 328T86 225Q86 127 136 73T278 19ZM348 806L365 836L516 747L506 727L348 806Z" />
<glyph unicode="&#xd3;" glyph-name="Oacute" horiz-adv-x="653" d="M276 -10Q225 -10 183 6T110 54T63 130T46 232Q46 329 77 414T161 564T283 665T428 703Q481 703 523 686T594 638T640 562T656 461Q656 364 626 279T545 129T424 28T276 -10ZM278 19Q341 19
394 45T490 116Q520 148 543 188T582 273T607 368T616 467Q616 571 565 622T427 674Q369 674 319 651T225 586Q193 554 168 513T124 425T96 328T86 225Q86 127 136 73T278 19ZM365 747L548 830L561 798L373 727L365 747Z" />
<glyph unicode="&#xd4;" glyph-name="Ocircumflex" horiz-adv-x="653" d="M276 -10Q225 -10 183 6T110 54T63 130T46 232Q46 329 77 414T161 564T283 665T428 703Q481 703 523 686T594 638T640 562T656 461Q656 364 626 279T545 129T424 28T276 -10ZM278 19Q341
19 394 45T490 116Q520 148 543 188T582 273T607 368T616 467Q616 571 565 622T427 674Q369 674 319 651T225 586Q193 554 168 513T124 425T96 328T86 225Q86 127 136 73T278 19ZM324 738L446 821H468L560 736L545 722L454 784L334 722L324 738Z" />
<glyph unicode="&#xd5;" glyph-name="Otilde" horiz-adv-x="653" d="M276 -10Q225 -10 183 6T110 54T63 130T46 232Q46 329 77 414T161 564T283 665T428 703Q481 703 523 686T594 638T640 562T656 461Q656 364 626 279T545 129T424 28T276 -10ZM278 19Q341 19
394 45T490 116Q520 148 543 188T582 273T607 368T616 467Q616 571 565 622T427 674Q369 674 319 651T225 586Q193 554 168 513T124 425T96 328T86 225Q86 127 136 73T278 19ZM323 751Q340 783 359 799T403 816Q417 816 430 811T457 799T483 788T508 782Q525 782
537 792T565 825L585 815Q568 783 549 766T506 749Q492 749 478 754T451 766T425 777T400 783Q368 783 342 741L323 751Z" />
<glyph unicode="&#xd6;" glyph-name="Odieresis" horiz-adv-x="653" d="M276 -10Q225 -10 183 6T110 54T63 130T46 232Q46 329 77 414T161 564T283 665T428 703Q481 703 523 686T594 638T640 562T656 461Q656 364 626 279T545 129T424 28T276 -10ZM278 19Q341
19 394 45T490 116Q520 148 543 188T582 273T607 368T616 467Q616 571 565 622T427 674Q369 674 319 651T225 586Q193 554 168 513T124 425T96 328T86 225Q86 127 136 73T278 19ZM372 744Q359 744 352 752T344 771Q344 784 352 793T374 802Q387 802 394 794T402
775Q402 762 394 753T372 744ZM516 744Q503 744 496 752T488 771Q488 784 496 793T518 802Q531 802 538 794T546 775Q546 762 538 753T516 744Z" />
<glyph unicode="&#xd7;" glyph-name="multiply" horiz-adv-x="487" d="M95 200L239 348L95 496L114 516L258 367L402 516L421 496L277 348L421 200L402 180L258 328L114 180L95 200Z" />
<glyph unicode="&#xd8;" glyph-name="Oslash" horiz-adv-x="653" d="M276 -10Q166 -10 103 61L30 -20L9 -2L86 83Q67 112 57 149T46 232Q46 329 77 414T161 564T283 665T428 703Q479 703 520 687T591 642L655 713L676 695L609 621Q632 590 644 550T656 461Q656
364 626 279T545 129T424 28T276 -10ZM278 19Q341 19 394 45T490 116Q520 148 543 188T582 273T607 368T616 467Q616 507 608 539T586 595L125 85Q174 19 278 19ZM86 225Q86 157 110 109L569 618Q521 674 427 674Q369 674 319 651T225 586Q193 554 168 513T124
425T96 328T86 225Z" />
<glyph unicode="&#xd9;" glyph-name="Ugrave" horiz-adv-x="676" d="M301 -9Q198 -9 143 33T87 156Q87 190 97 227L208 663L125 671L131 693H350L344 671L248 663L136 226Q126 189 126 156Q126 87 171 54T304 21Q355 21 393 33T459 69T506 131T537 219L647 663L560
671L566 693H769L763 671L680 663L568 212Q542 104 479 48T301 -9ZM370 806L387 836L538 747L528 727L370 806Z" />
<glyph unicode="&#xda;" glyph-name="Uacute" horiz-adv-x="676" d="M301 -9Q198 -9 143 33T87 156Q87 190 97 227L208 663L125 671L131 693H350L344 671L248 663L136 226Q126 189 126 156Q126 87 171 54T304 21Q355 21 393 33T459 69T506 131T537 219L647 663L560
671L566 693H769L763 671L680 663L568 212Q542 104 479 48T301 -9ZM387 747L570 830L583 798L395 727L387 747Z" />
<glyph unicode="&#xdb;" glyph-name="Ucircumflex" horiz-adv-x="676" d="M301 -9Q198 -9 143 33T87 156Q87 190 97 227L208 663L125 671L131 693H350L344 671L248 663L136 226Q126 189 126 156Q126 87 171 54T304 21Q355 21 393 33T459 69T506 131T537 219L647
663L560 671L566 693H769L763 671L680 663L568 212Q542 104 479 48T301 -9ZM340 738L462 821H484L576 736L561 722L470 784L350 722L340 738Z" />
<glyph unicode="&#xdc;" glyph-name="Udieresis" horiz-adv-x="676" d="M301 -9Q198 -9 143 33T87 156Q87 190 97 227L208 663L125 671L131 693H350L344 671L248 663L136 226Q126 189 126 156Q126 87 171 54T304 21Q355 21 393 33T459 69T506 131T537 219L647
663L560 671L566 693H769L763 671L680 663L568 212Q542 104 479 48T301 -9ZM391 744Q378 744 371 752T363 771Q363 784 371 793T393 802Q406 802 413 794T421 775Q421 762 413 753T391 744ZM535 744Q522 744 515 752T507 771Q507 784 515 793T537 802Q550 802 557
794T565 775Q565 762 557 753T535 744Z" />
<glyph unicode="&#xdd;" glyph-name="Yacute" horiz-adv-x="571" d="M126 22L216 31L289 316L173 662L115 671L121 693H303L297 671L213 662L316 345H318L572 662L492 671L498 693H676L670 671L609 662L327 312L255 31L342 22L337 0H121L126 22ZM334 747L517 830L530
798L342 727L334 747Z" />
<glyph unicode="&#xde;" glyph-name="Thorn" horiz-adv-x="537" d="M-28 22L62 31L223 662L136 671L142 693H365L359 671L262 662L232 549H347Q449 549 495 507T541 398Q541 343 522 303T469 237T390 199T292 186Q259 186 237 190T197 200L203 223Q220 219 239
216T289 213Q391 213 445 258T500 394Q500 421 492 444T467 483T420 509T349 519H225L101 31L201 22L196 0H-33L-28 22Z" />
<glyph unicode="&#xdf;" glyph-name="germandbls" horiz-adv-x="508" d="M-95 -198Q-124 -198 -143 -186T-162 -151Q-162 -137 -156 -126T-144 -109H-122Q-124 -117 -126 -126T-129 -144Q-129 -155 -121 -162T-94 -170Q-76 -170 -60 -163T-30 -138T-3 -91T20 -16L143
499Q159 567 184 613T241 687T309 728T383 741Q437 741 471 715T505 640Q505 612 489 585T450 532T399 480T348 432T308 387T292 346Q292 320 309 302T365 254Q385 238 403 225T434 197T454 165T462 127Q462 97 450 73T415 31T363 3T297 -7Q271 -7 248 -3T205 11T175
34T164 68Q164 88 171 101T189 123H214Q209 112 204 101T198 74Q198 59 206 49T229 33T260 23T296 20Q356 20 391 48T426 121Q426 138 420 151T403 177T375 201T339 230Q319 245 305 257T280 282T264 307T259 339Q259 363 274 387T313 435T363 485T413 535T451
586T467 638Q467 674 446 694T379 714Q313 714 261 666T180 502L56 -5Q33 -104 -2 -151T-95 -198Z" />
<glyph unicode="&#xe0;" glyph-name="agrave" horiz-adv-x="491" d="M98 -7Q56 -7 32 22T8 105Q8 153 21 201T57 295T112 379T180 446T258 491T340 508Q369 508 394 499T434 478H436L452 511H480L329 28L424 31L419 12Q409 9 395 6T365 0T336 -5T312 -7Q301 -7
295 0T293 27L337 158H335Q313 129 285 100T225 47T161 8T98 -7ZM100 27Q129 27 162 43T229 84T293 142T348 208L423 446Q409 461 386 470T336 480Q299 480 264 464T196 421T136 358T88 281T57 197T45 113Q45 27 100 27ZM499 688L519 716L666 612L654 593L499 688Z"
/>
<glyph unicode="&#xe1;" glyph-name="aacute" horiz-adv-x="491" d="M98 -7Q56 -7 32 22T8 105Q8 153 21 201T57 295T112 379T180 446T258 491T340 508Q369 508 394 499T434 478H436L452 511H480L329 28L424 31L419 12Q409 9 395 6T365 0T336 -5T312 -7Q301 -7
295 0T293 27L337 158H335Q313 129 285 100T225 47T161 8T98 -7ZM100 27Q129 27 162 43T229 84T293 142T348 208L423 446Q409 461 386 470T336 480Q299 480 264 464T196 421T136 358T88 281T57 197T45 113Q45 27 100 27ZM279 612L446 717L463 686L289 593L279 612Z"
/>
<glyph unicode="&#xe2;" glyph-name="acircumflex" horiz-adv-x="491" d="M98 -7Q56 -7 32 22T8 105Q8 153 21 201T57 295T112 379T180 446T258 491T340 508Q369 508 394 499T434 478H436L452 511H480L329 28L424 31L419 12Q409 9 395 6T365 0T336 -5T312 -7Q301
-7 295 0T293 27L337 158H335Q313 129 285 100T225 47T161 8T98 -7ZM100 27Q129 27 162 43T229 84T293 142T348 208L423 446Q409 461 386 470T336 480Q299 480 264 464T196 421T136 358T88 281T57 197T45 113Q45 27 100 27ZM228 617L353 721H375L456 615L441 601L360
684L238 601L228 617Z" />
<glyph unicode="&#xe3;" glyph-name="atilde" horiz-adv-x="491" d="M98 -7Q56 -7 32 22T8 105Q8 153 21 201T57 295T112 379T180 446T258 491T340 508Q369 508 394 499T434 478H436L452 511H480L329 28L424 31L419 12Q409 9 395 6T365 0T336 -5T312 -7Q301 -7
295 0T293 27L337 158H335Q313 129 285 100T225 47T161 8T98 -7ZM100 27Q129 27 162 43T229 84T293 142T348 208L423 446Q409 461 386 470T336 480Q299 480 264 464T196 421T136 358T88 281T57 197T45 113Q45 27 100 27ZM224 631Q241 663 260 679T304 696Q318 696
331 691T358 679T384 668T409 662Q426 662 438 672T466 705L486 695Q469 663 450 646T407 629Q393 629 379 634T352 646T326 657T301 663Q269 663 243 621L224 631Z" />
<glyph unicode="&#xe4;" glyph-name="adieresis" horiz-adv-x="491" d="M98 -7Q56 -7 32 22T8 105Q8 153 21 201T57 295T112 379T180 446T258 491T340 508Q369 508 394 499T434 478H436L452 511H480L329 28L424 31L419 12Q409 9 395 6T365 0T336 -5T312 -7Q301
-7 295 0T293 27L337 158H335Q313 129 285 100T225 47T161 8T98 -7ZM100 27Q129 27 162 43T229 84T293 142T348 208L423 446Q409 461 386 470T336 480Q299 480 264 464T196 421T136 358T88 281T57 197T45 113Q45 27 100 27ZM286 635Q273 635 266 643T258 662Q258
675 266 684T288 693Q301 693 308 685T316 666Q316 653 308 644T286 635ZM424 635Q411 635 404 643T396 662Q396 675 404 684T426 693Q439 693 446 685T454 666Q454 653 446 644T424 635Z" />
<glyph unicode="&#xe5;" glyph-name="aring" horiz-adv-x="491" d="M98 -7Q56 -7 32 22T8 105Q8 153 21 201T57 295T112 379T180 446T258 491T340 508Q369 508 394 499T434 478H436L452 511H480L329 28L424 31L419 12Q409 9 395 6T365 0T336 -5T312 -7Q301 -7
295 0T293 27L337 158H335Q313 129 285 100T225 47T161 8T98 -7ZM100 27Q129 27 162 43T229 84T293 142T348 208L423 446Q409 461 386 470T336 480Q299 480 264 464T196 421T136 358T88 281T57 197T45 113Q45 27 100 27ZM357 590Q322 590 303 612T283 662Q283 700
307 722T367 745Q402 745 421 723T441 672Q441 636 417 613T357 590ZM358 613Q382 613 398 629T415 672Q415 691 403 707T366 723Q342 723 326 707T309 662Q309 644 321 629T358 613Z" />
<glyph unicode="&#xe6;" glyph-name="ae" horiz-adv-x="700" d="M120 -8Q62 -8 30 24T-3 105Q-3 241 168 256L321 269L341 344Q344 356 346 368T348 391Q348 432 323 460T237 488Q181 488 149 469T116 419Q116 405 121 388H94Q89 396 86 404T82 423Q82 460 123
488T242 516Q281 516 308 505T352 475T375 430T378 373Q423 440 484 478T607 516Q652 516 679 492T706 423Q706 373 676 341T597 288T483 257T351 241Q340 195 340 151Q340 93 367 59T454 24Q510 24 556 47T639 99L635 69Q621 57 602 44T558 19T506 0T445 -7Q392
-7 358 19T311 89Q276 50 228 21T120 -8ZM303 146Q303 198 313 241L174 233Q96 228 64 196T32 112Q32 72 53 46T127 20Q180 20 225 47T305 116Q303 124 303 131T303 146ZM603 488Q567 488 530 472T460 427T401 357T358 267Q416 272 472 281T572 306T643 350T670
421Q670 451 652 469T603 488Z" />
<glyph unicode="&#xe7;" glyph-name="ccedilla" horiz-adv-x="401" d="M56 -176Q122 -168 152 -154T182 -114Q182 -97 163 -88T100 -76L118 -2Q69 10 44 50T18 146Q18 224 46 292T118 409T218 487T328 516Q371 516 395 500T420 455Q420 437 413 421T396 390H370Q377
407 381 421T385 451Q385 488 321 488Q274 488 227 462T142 391T79 283T55 148Q55 92 82 58T167 24Q218 24 259 44T337 93L333 64Q318 52 300 40T260 17T213 0T158 -7Q156 -7 153 -7T143 -6L133 -50Q175 -54 197 -69T219 -109Q219 -184 50 -199L56 -176Z" />
<glyph unicode="&#xe8;" glyph-name="egrave" horiz-adv-x="417" d="M160 -7Q126 -7 100 4T55 36T28 85T18 146Q18 225 46 293T119 410T217 488T321 516Q367 516 394 492T421 423Q421 373 391 339T310 283T196 249T63 230Q59 210 57 191T55 151Q55 93 82 59T169
24Q225 24 271 47T354 99L350 69Q336 57 317 44T273 19T221 0T160 -7ZM317 488Q280 488 243 471T172 423T112 350T70 256Q131 263 188 273T289 302T359 349T385 421Q385 451 367 469T317 488ZM478 688L498 716L645 612L633 593L478 688Z" />
<glyph unicode="&#xe9;" glyph-name="eacute" horiz-adv-x="417" d="M160 -7Q126 -7 100 4T55 36T28 85T18 146Q18 225 46 293T119 410T217 488T321 516Q367 516 394 492T421 423Q421 373 391 339T310 283T196 249T63 230Q59 210 57 191T55 151Q55 93 82 59T169
24Q225 24 271 47T354 99L350 69Q336 57 317 44T273 19T221 0T160 -7ZM317 488Q280 488 243 471T172 423T112 350T70 256Q131 263 188 273T289 302T359 349T385 421Q385 451 367 469T317 488ZM258 612L425 717L442 686L268 593L258 612Z" />
<glyph unicode="&#xea;" glyph-name="ecircumflex" horiz-adv-x="417" d="M160 -7Q126 -7 100 4T55 36T28 85T18 146Q18 225 46 293T119 410T217 488T321 516Q367 516 394 492T421 423Q421 373 391 339T310 283T196 249T63 230Q59 210 57 191T55 151Q55 93 82
59T169 24Q225 24 271 47T354 99L350 69Q336 57 317 44T273 19T221 0T160 -7ZM317 488Q280 488 243 471T172 423T112 350T70 256Q131 263 188 273T289 302T359 349T385 421Q385 451 367 469T317 488ZM463 617L588 721H610L691 615L676 601L595 684L473 601L463
617Z" />
<glyph unicode="&#xeb;" glyph-name="edieresis" horiz-adv-x="417" d="M160 -7Q126 -7 100 4T55 36T28 85T18 146Q18 225 46 293T119 410T217 488T321 516Q367 516 394 492T421 423Q421 373 391 339T310 283T196 249T63 230Q59 210 57 191T55 151Q55 93 82 59T169
24Q225 24 271 47T354 99L350 69Q336 57 317 44T273 19T221 0T160 -7ZM317 488Q280 488 243 471T172 423T112 350T70 256Q131 263 188 273T289 302T359 349T385 421Q385 451 367 469T317 488ZM510 635Q497 635 490 643T482 662Q482 675 490 684T512 693Q525 693
532 685T540 666Q540 653 532 644T510 635ZM648 635Q635 635 628 643T620 662Q620 675 628 684T650 693Q663 693 670 685T678 666Q678 653 670 644T648 635Z" />
<glyph unicode="&#xec;" glyph-name="igrave" horiz-adv-x="227" d="M51 -7Q40 -7 34 0T32 27L168 480L74 478L79 499L209 517L214 512L69 28L163 31L158 12Q147 9 133 6T104 0T75 -5T51 -7ZM105 688L125 716L272 612L260 593L105 688Z" />
<glyph unicode="&#xed;" glyph-name="iacute" horiz-adv-x="227" d="M51 -7Q40 -7 34 0T32 27L168 480L74 478L79 499L209 517L214 512L69 28L163 31L158 12Q147 9 133 6T104 0T75 -5T51 -7ZM399 612L566 717L583 686L409 593L399 612Z" />
<glyph unicode="&#xee;" glyph-name="icircumflex" horiz-adv-x="227" d="M51 -7Q40 -7 34 0T32 27L168 480L74 478L79 499L209 517L214 512L69 28L163 31L158 12Q147 9 133 6T104 0T75 -5T51 -7ZM347 617L472 721H494L575 615L560 601L479 684L357 601L347 617Z" />
<glyph unicode="&#xef;" glyph-name="idieresis" horiz-adv-x="227" d="M51 -7Q40 -7 34 0T32 27L168 480L74 478L79 499L209 517L214 512L69 28L163 31L158 12Q147 9 133 6T104 0T75 -5T51 -7ZM149 635Q136 635 129 643T121 662Q121 675 129 684T151 693Q164
693 171 685T179 666Q179 653 171 644T149 635ZM287 635Q274 635 267 643T259 662Q259 675 267 684T289 693Q302 693 309 685T317 666Q317 653 309 644T287 635Z" />
<glyph unicode="&#xf0;" glyph-name="eth" horiz-adv-x="479" d="M310 667Q290 686 267 703T216 736L228 758Q260 742 288 723T341 681L437 726L446 704L358 664Q407 612 434 544T461 388Q461 302 437 230T373 105T280 23T171 -7Q99 -7 60 38T20 159Q20 235 45
300T111 414T204 489T309 516Q347 516 373 506T416 481H418Q406 526 384 568T327 649L194 588L185 610L310 667ZM173 21Q219 21 264 47T345 122T403 239T425 390Q425 404 424 414T421 443Q407 460 378 474T307 488Q259 488 214 462T134 391T78 284T57 152Q57 92
86 57T173 21Z" />
<glyph unicode="&#xf1;" glyph-name="ntilde" horiz-adv-x="518" d="M345 -7Q334 -7 328 0T326 27L441 389Q452 427 452 446Q452 483 419 483Q391 483 351 458T268 397T188 319T127 243L53 0H16L163 480L73 478L78 499L202 517L207 512L141 301H143Q172 339 209
377T286 446T363 496T431 516Q460 516 475 499T490 450Q490 425 479 390L363 28L453 31L449 12Q438 9 425 6T397 0T369 -5T345 -7ZM227 631Q244 663 263 679T307 696Q321 696 334 691T361 679T387 668T412 662Q429 662 441 672T469 705L489 695Q472 663 453 646T410
629Q396 629 382 634T355 646T329 657T304 663Q272 663 246 621L227 631Z" />
<glyph unicode="&#xf2;" glyph-name="ograve" horiz-adv-x="476" d="M171 -9Q98 -9 59 37T20 158Q20 236 45 301T110 414T202 489T305 516Q379 516 417 471T455 350Q455 273 431 207T366 93T275 18T171 -9ZM173 19Q219 19 263 45T342 117T398 224T419 357Q419
417 390 452T303 488Q257 488 213 462T134 391T78 284T57 152Q57 92 86 56T173 19ZM481 688L501 716L648 612L636 593L481 688Z" />
<glyph unicode="&#xf3;" glyph-name="oacute" horiz-adv-x="476" d="M171 -9Q98 -9 59 37T20 158Q20 236 45 301T110 414T202 489T305 516Q379 516 417 471T455 350Q455 273 431 207T366 93T275 18T171 -9ZM173 19Q219 19 263 45T342 117T398 224T419 357Q419
417 390 452T303 488Q257 488 213 462T134 391T78 284T57 152Q57 92 86 56T173 19ZM261 612L428 717L445 686L271 593L261 612Z" />
<glyph unicode="&#xf4;" glyph-name="ocircumflex" horiz-adv-x="476" d="M171 -9Q98 -9 59 37T20 158Q20 236 45 301T110 414T202 489T305 516Q379 516 417 471T455 350Q455 273 431 207T366 93T275 18T171 -9ZM173 19Q219 19 263 45T342 117T398 224T419 357Q419
417 390 452T303 488Q257 488 213 462T134 391T78 284T57 152Q57 92 86 56T173 19ZM467 617L592 721H614L695 615L680 601L599 684L477 601L467 617Z" />
<glyph unicode="&#xf5;" glyph-name="otilde" horiz-adv-x="476" d="M171 -9Q98 -9 59 37T20 158Q20 236 45 301T110 414T202 489T305 516Q379 516 417 471T455 350Q455 273 431 207T366 93T275 18T171 -9ZM173 19Q219 19 263 45T342 117T398 224T419 357Q419
417 390 452T303 488Q257 488 213 462T134 391T78 284T57 152Q57 92 86 56T173 19ZM463 631Q480 663 499 679T543 696Q557 696 570 691T597 679T623 668T648 662Q665 662 677 672T705 705L725 695Q708 663 689 646T646 629Q632 629 618 634T591 646T565 657T540
663Q508 663 482 621L463 631Z" />
<glyph unicode="&#xf6;" glyph-name="odieresis" horiz-adv-x="476" d="M171 -9Q98 -9 59 37T20 158Q20 236 45 301T110 414T202 489T305 516Q379 516 417 471T455 350Q455 273 431 207T366 93T275 18T171 -9ZM173 19Q219 19 263 45T342 117T398 224T419 357Q419
417 390 452T303 488Q257 488 213 462T134 391T78 284T57 152Q57 92 86 56T173 19ZM517 635Q504 635 497 643T489 662Q489 675 497 684T519 693Q532 693 539 685T547 666Q547 653 539 644T517 635ZM655 635Q642 635 635 643T627 662Q627 675 635 684T657 693Q670
693 677 685T685 666Q685 653 677 644T655 635Z" />
<glyph unicode="&#xf7;" glyph-name="divide" horiz-adv-x="495" d="M77 364H450V335H77V364ZM263 455Q249 455 240 464T231 486Q231 499 240 508T263 517Q277 517 286 508T295 486Q295 473 286 464T263 455ZM263 183Q249 183 240 192T231 214Q231 227 240 236T263
245Q277 245 286 236T295 214Q295 201 286 192T263 183Z" />
<glyph unicode="&#xf8;" glyph-name="oslash" horiz-adv-x="476" d="M171 -9Q137 -9 111 1T64 31L7 -37L-12 -20L48 52Q20 93 20 158Q20 236 45 301T110 414T202 489T305 516Q337 516 362 507T406 481L455 540L474 523L423 462Q455 419 455 350Q455 273 431 207T366
93T275 18T171 -9ZM173 19Q219 19 263 45T342 117T398 224T419 357Q419 406 402 437L84 55Q114 19 173 19ZM57 152Q57 108 70 79L386 458Q356 488 303 488Q257 488 213 462T134 391T78 284T57 152Z" />
<glyph unicode="&#xf9;" glyph-name="ugrave" horiz-adv-x="519" d="M101 -6Q35 -6 35 62Q35 86 44 119L159 480L71 478L76 499L200 517L205 512L81 119Q71 88 71 66Q71 45 81 36T108 27Q134 27 171 47T249 99T325 167T387 237L468 509H505L360 28L452 31L448
12Q438 9 424 6T395 0T366 -5T342 -7Q330 -7 324 0T323 27L373 182H371Q339 146 303 112T230 52T161 10T101 -6ZM250 688L270 716L417 612L405 593L250 688Z" />
<glyph unicode="&#xfa;" glyph-name="uacute" horiz-adv-x="519" d="M101 -6Q35 -6 35 62Q35 86 44 119L159 480L71 478L76 499L200 517L205 512L81 119Q71 88 71 66Q71 45 81 36T108 27Q134 27 171 47T249 99T325 167T387 237L468 509H505L360 28L452 31L448
12Q438 9 424 6T395 0T366 -5T342 -7Q330 -7 324 0T323 27L373 182H371Q339 146 303 112T230 52T161 10T101 -6ZM288 612L455 717L472 686L298 593L288 612Z" />
<glyph unicode="&#xfb;" glyph-name="ucircumflex" horiz-adv-x="519" d="M101 -6Q35 -6 35 62Q35 86 44 119L159 480L71 478L76 499L200 517L205 512L81 119Q71 88 71 66Q71 45 81 36T108 27Q134 27 171 47T249 99T325 167T387 237L468 509H505L360 28L452 31L448
12Q438 9 424 6T395 0T366 -5T342 -7Q330 -7 324 0T323 27L373 182H371Q339 146 303 112T230 52T161 10T101 -6ZM232 617L357 721H379L460 615L445 601L364 684L242 601L232 617Z" />
<glyph unicode="&#xfc;" glyph-name="udieresis" horiz-adv-x="519" d="M101 -6Q35 -6 35 62Q35 86 44 119L159 480L71 478L76 499L200 517L205 512L81 119Q71 88 71 66Q71 45 81 36T108 27Q134 27 171 47T249 99T325 167T387 237L468 509H505L360 28L452 31L448
12Q438 9 424 6T395 0T366 -5T342 -7Q330 -7 324 0T323 27L373 182H371Q339 146 303 112T230 52T161 10T101 -6ZM287 635Q274 635 267 643T259 662Q259 675 267 684T289 693Q302 693 309 685T317 666Q317 653 309 644T287 635ZM425 635Q412 635 405 643T397 662Q397
675 405 684T427 693Q440 693 447 685T455 666Q455 653 447 644T425 635Z" />
<glyph unicode="&#xfd;" glyph-name="yacute" horiz-adv-x="437" d="M-117 -199Q-148 -199 -167 -185T-185 -144Q-185 -124 -176 -109T-158 -83H-133Q-139 -91 -145 -106T-152 -139Q-152 -155 -141 -162T-109 -169Q-82 -169 -52 -158T8 -128T69 -82T128 -23Q133
41 135 102T138 221Q138 304 134 370T125 481L47 478L53 499Q69 504 94 509T139 515Q151 515 156 509T164 482Q168 440 170 378T173 244Q173 187 171 129T163 19H165Q201 64 244 125T327 251T397 375T436 481L355 478L359 498Q374 504 400 510T449 516Q471 516
471 492Q471 470 457 434T420 353T366 259T304 161T238 69T177 -8Q142 -49 106 -84T33 -144T-41 -184T-117 -199ZM502 612L669 717L686 686L512 593L502 612Z" />
<glyph unicode="&#xfe;" glyph-name="thorn" horiz-adv-x="508" d="M-115 -175L-34 -169L229 704L132 707L137 728L269 743L275 738L156 345H158Q218 427 279 471T394 516Q439 516 467 483T496 387Q496 309 471 238T403 112T304 24T185 -9Q146 -9 116 1T62 27L3
-168L88 -175L83 -195H-119L-115 -175ZM186 19Q241 19 290 49T377 130T436 244T458 377Q458 425 440 454T383 484Q358 484 329 470T269 430T204 366T139 283L72 61Q95 41 122 30T186 19Z" />
<glyph unicode="&#xff;" glyph-name="ydieresis" horiz-adv-x="437" d="M-117 -199Q-148 -199 -167 -185T-185 -144Q-185 -124 -176 -109T-158 -83H-133Q-139 -91 -145 -106T-152 -139Q-152 -155 -141 -162T-109 -169Q-82 -169 -52 -158T8 -128T69 -82T128 -23Q133
41 135 102T138 221Q138 304 134 370T125 481L47 478L53 499Q69 504 94 509T139 515Q151 515 156 509T164 482Q168 440 170 378T173 244Q173 187 171 129T163 19H165Q201 64 244 125T327 251T397 375T436 481L355 478L359 498Q374 504 400 510T449 516Q471 516
471 492Q471 470 457 434T420 353T366 259T304 161T238 69T177 -8Q142 -49 106 -84T33 -144T-41 -184T-117 -199ZM508 635Q495 635 488 643T480 662Q480 675 488 684T510 693Q523 693 530 685T538 666Q538 653 530 644T508 635ZM646 635Q633 635 626 643T618 662Q618
675 626 684T648 693Q661 693 668 685T676 666Q676 653 668 644T646 635Z" />
<glyph unicode="&#x100;" glyph-name="Amacron" horiz-adv-x="596" d="M-59 22L6 31L423 693H458L481 31L545 22L539 0H353L359 22L442 31L436 230H167L42 31L121 22L115 0H-65L-59 22ZM184 257H435L423 633H421L184 257ZM343 778H559L553 751H337L343 778Z" />
<glyph unicode="&#x101;" glyph-name="amacron" horiz-adv-x="491" d="M248 676H464L458 649H242L248 676ZM98 -7Q56 -7 32 22T8 105Q8 153 21 201T57 295T112 379T180 446T258 491T340 508Q369 508 394 499T434 478H436L452 511H480L329 28L424 31L419 12Q409
9 395 6T365 0T336 -5T312 -7Q301 -7 295 0T293 27L337 158H335Q313 129 285 100T225 47T161 8T98 -7ZM100 27Q129 27 162 43T229 84T293 142T348 208L423 446Q409 461 386 470T336 480Q299 480 264 464T196 421T136 358T88 281T57 197T45 113Q45 27 100 27Z" />
<glyph unicode="&#x102;" glyph-name="Abreve" horiz-adv-x="596" d="M444 734Q401 734 371 759T338 829H365Q369 797 391 781T446 764Q479 764 504 780T542 829H569Q555 784 522 759T444 734ZM-59 22L6 31L423 693H458L481 31L545 22L539 0H353L359 22L442 31L436
230H167L42 31L121 22L115 0H-65L-59 22ZM184 257H435L423 633H421L184 257Z" />
<glyph unicode="&#x103;" glyph-name="abreve" horiz-adv-x="491" d="M98 -7Q56 -7 32 22T8 105Q8 153 21 201T57 295T112 379T180 446T258 491T340 508Q369 508 394 499T434 478H436L452 511H480L329 28L424 31L419 12Q409 9 395 6T365 0T336 -5T312 -7Q301 -7
295 0T293 27L337 158H335Q313 129 285 100T225 47T161 8T98 -7ZM100 27Q129 27 162 43T229 84T293 142T348 208L423 446Q409 461 386 470T336 480Q299 480 264 464T196 421T136 358T88 281T57 197T45 113Q45 27 100 27ZM604 604Q582 604 563 611T529 632T506 665T498
709H523Q525 674 548 654T606 634Q641 634 668 654T706 709H731Q719 661 684 633T604 604Z" />
<glyph unicode="&#x104;" glyph-name="Aogonek" horiz-adv-x="596" d="M414 -198Q379 -198 360 -181T341 -135Q341 -115 350 -96T374 -60T406 -27T439 0H353L359 22L442 31L436 230H167L42 31L121 22L115 0H-65L-59 22L6 31L423 693H458L481 31L545 22L539 0H475Q457
-15 440 -31T408 -65T385 -99T376 -134Q376 -172 422 -172Q436 -172 448 -170T467 -166L461 -189Q452 -193 441 -195T414 -198ZM184 257H435L423 633H421L184 257Z" />
<glyph unicode="&#x105;" glyph-name="aogonek" horiz-adv-x="491" d="M276 -198Q241 -198 222 -181T203 -135Q203 -116 212 -97T236 -61T267 -30T300 -5Q294 -2 292 5T293 27L337 158H335Q313 129 285 100T225 47T161 8T98 -7Q56 -7 32 22T8 105Q8 153 21 201T57
295T112 379T180 446T258 491T340 508Q369 508 394 499T434 478H436L452 511H480L329 28L424 31L419 12Q391 6 372 1T337 -11T310 -27T283 -50Q263 -70 251 -91T238 -134Q238 -172 284 -172Q298 -172 310 -170T329 -166L323 -189Q314 -193 303 -195T276 -198ZM100
27Q129 27 162 43T229 84T293 142T348 208L423 446Q409 461 386 470T336 480Q299 480 264 464T196 421T136 358T88 281T57 197T45 113Q45 27 100 27Z" />
<glyph unicode="&#x106;" glyph-name="Cacute" horiz-adv-x="593" d="M313 -11Q253 -11 204 4T121 51T67 130T48 242Q48 300 62 355T99 458T154 547T219 614Q273 658 333 681T459 704Q522 704 560 695T624 674L604 528H582L587 649Q569 657 539 666T456 675Q396
675 341 653T239 590Q171 528 131 437T90 241Q90 132 146 75T315 18Q363 18 398 26T465 46L509 166H533L493 20Q458 6 410 -2T313 -11ZM387 747L570 830L583 798L395 727L387 747Z" />
<glyph unicode="&#x107;" glyph-name="cacute" horiz-adv-x="401" d="M158 -7Q89 -7 54 36T18 146Q18 224 46 292T118 409T218 487T328 516Q371 516 395 500T420 455Q420 437 413 421T396 390H370Q377 407 381 421T385 451Q385 488 321 488Q274 488 227 462T142
391T79 283T55 148Q55 92 82 58T167 24Q218 24 259 44T337 93L333 64Q318 52 300 40T260 17T213 0T158 -7ZM256 612L423 717L440 686L266 593L256 612Z" />
<glyph unicode="&#x108;" glyph-name="Ccircumflex" horiz-adv-x="593" d="M342 738L464 821H486L578 736L563 722L472 784L352 722L342 738ZM313 -11Q253 -11 204 4T121 51T67 130T48 242Q48 300 62 355T99 458T154 547T219 614Q273 658 333 681T459 704Q522
704 560 695T624 674L604 528H582L587 649Q569 657 539 666T456 675Q396 675 341 653T239 590Q171 528 131 437T90 241Q90 132 146 75T315 18Q363 18 398 26T465 46L509 166H533L493 20Q458 6 410 -2T313 -11Z" />
<glyph unicode="&#x109;" glyph-name="ccircumflex" horiz-adv-x="401" d="M158 -7Q89 -7 54 36T18 146Q18 224 46 292T118 409T218 487T328 516Q371 516 395 500T420 455Q420 437 413 421T396 390H370Q377 407 381 421T385 451Q385 488 321 488Q274 488 227 462T142
391T79 283T55 148Q55 92 82 58T167 24Q218 24 259 44T337 93L333 64Q318 52 300 40T260 17T213 0T158 -7ZM461 617L586 721H608L689 615L674 601L593 684L471 601L461 617Z" />
<glyph unicode="&#x10a;" glyph-name="Cdotaccent" horiz-adv-x="593" d="M467 745Q454 745 447 753T439 772Q439 785 447 794T469 803Q482 803 489 795T497 776Q497 763 489 754T467 745ZM313 -11Q253 -11 204 4T121 51T67 130T48 242Q48 300 62 355T99 458T154
547T219 614Q273 658 333 681T459 704Q522 704 560 695T624 674L604 528H582L587 649Q569 657 539 666T456 675Q396 675 341 653T239 590Q171 528 131 437T90 241Q90 132 146 75T315 18Q363 18 398 26T465 46L509 166H533L493 20Q458 6 410 -2T313 -11Z" />
<glyph unicode="&#x10b;" glyph-name="cdotaccent" horiz-adv-x="401" d="M158 -7Q89 -7 54 36T18 146Q18 224 46 292T118 409T218 487T328 516Q371 516 395 500T420 455Q420 437 413 421T396 390H370Q377 407 381 421T385 451Q385 488 321 488Q274 488 227 462T142
391T79 283T55 148Q55 92 82 58T167 24Q218 24 259 44T337 93L333 64Q318 52 300 40T260 17T213 0T158 -7ZM588 635Q575 635 568 643T560 662Q560 675 568 684T590 693Q603 693 610 685T618 666Q618 653 610 644T588 635Z" />
<glyph unicode="&#x10c;" glyph-name="Ccaron" horiz-adv-x="593" d="M589 809L467 726H445L353 811L368 825L459 763L579 825L589 809ZM313 -11Q253 -11 204 4T121 51T67 130T48 242Q48 300 62 355T99 458T154 547T219 614Q273 658 333 681T459 704Q522 704 560
695T624 674L604 528H582L587 649Q569 657 539 666T456 675Q396 675 341 653T239 590Q171 528 131 437T90 241Q90 132 146 75T315 18Q363 18 398 26T465 46L509 166H533L493 20Q458 6 410 -2T313 -11Z" />
<glyph unicode="&#x10d;" glyph-name="ccaron" horiz-adv-x="401" d="M709 700L584 596H562L481 702L496 716L577 633L699 716L709 700ZM158 -7Q89 -7 54 36T18 146Q18 224 46 292T118 409T218 487T328 516Q371 516 395 500T420 455Q420 437 413 421T396 390H370Q377
407 381 421T385 451Q385 488 321 488Q274 488 227 462T142 391T79 283T55 148Q55 92 82 58T167 24Q218 24 259 44T337 93L333 64Q318 52 300 40T260 17T213 0T158 -7Z" />
<glyph unicode="&#x10e;" glyph-name="Dcaron" horiz-adv-x="655" d="M547 809L425 726H403L311 811L326 825L417 763L537 825L547 809ZM-28 22L62 31L222 662L135 671L141 693H382Q524 693 590 630T657 448Q657 358 630 277T550 135T419 37T240 0H-34L-28 22ZM240
29Q311 29 368 48T472 103Q543 159 579 251T616 453Q616 562 559 613T377 664H262L101 29H240Z" />
<glyph unicode="&#x10f;" glyph-name="dcaron" horiz-adv-x="498" d="M109 -7Q63 -7 38 24T12 115Q12 163 25 212T62 305T117 388T185 455T262 500T342 516Q375 516 401 506T443 485L508 704L411 707L416 728L548 743L554 738L343 28L436 31L431 12Q420 9 407
6T379 0T350 -5T326 -7Q315 -7 309 0T307 27L348 156H346Q325 129 297 101T238 48T173 9T109 -7ZM117 25Q144 25 176 41T242 83T305 141T360 204L433 451Q418 465 394 476T340 488Q285 488 233 455T140 370T74 253T49 125Q49 79 64 52T117 25ZM558 600L610 744L648
735L584 593L558 600Z" />
<glyph unicode="&#x110;" glyph-name="Dcroat" horiz-adv-x="655" d="M57 363H146L222 662L135 671L141 693H382Q524 693 590 630T657 448Q657 358 630 277T550 135T419 37T240 0H-34L-28 22L62 31L138 333H49L57 363ZM240 29Q311 29 368 48T472 103Q543 159 579
251T616 453Q616 562 559 613T377 664H262L185 363H371L363 333H178L101 29H240Z" />
<glyph unicode="&#x111;" glyph-name="dcroat" horiz-adv-x="498" d="M109 -7Q63 -7 38 24T12 115Q12 163 25 212T62 305T117 388T185 455T262 500T342 516Q375 516 401 506T443 485L480 612H326L332 637H488L508 704L411 707L416 728L548 743L554 738L524 637H597L591
612H516L343 28L436 31L431 12Q420 9 407 6T379 0T350 -5T326 -7Q315 -7 309 0T307 27L348 156H346Q325 129 297 101T238 48T173 9T109 -7ZM117 25Q144 25 176 41T242 83T305 141T360 204L433 451Q418 465 394 476T340 488Q285 488 233 455T140 370T74 253T49 125Q49
79 64 52T117 25Z" />
<glyph unicode="&#x112;" glyph-name="Emacron" horiz-adv-x="560" d="M-26 22L62 31L222 662L136 671L140 693H589L575 539H551L550 664H262L187 370H370L401 465H425L378 247H354L366 342H180L101 29H436L491 172H514L467 0H-31L-26 22ZM298 778H514L508 751H292L298
778Z" />
<glyph unicode="&#x113;" glyph-name="emacron" horiz-adv-x="417" d="M160 -7Q126 -7 100 4T55 36T28 85T18 146Q18 225 46 293T119 410T217 488T321 516Q367 516 394 492T421 423Q421 373 391 339T310 283T196 249T63 230Q59 210 57 191T55 151Q55 93 82 59T169
24Q225 24 271 47T354 99L350 69Q336 57 317 44T273 19T221 0T160 -7ZM317 488Q280 488 243 471T172 423T112 350T70 256Q131 263 188 273T289 302T359 349T385 421Q385 451 367 469T317 488ZM476 676H692L686 649H470L476 676Z" />
<glyph unicode="&#x114;" glyph-name="Ebreve" horiz-adv-x="560" d="M-26 22L62 31L222 662L136 671L140 693H589L575 539H551L550 664H262L187 370H370L401 465H425L378 247H354L366 342H180L101 29H436L491 172H514L467 0H-31L-26 22ZM407 734Q364 734 334
759T301 829H328Q332 797 354 781T409 764Q442 764 467 780T505 829H532Q518 784 485 759T407 734Z" />
<glyph unicode="&#x115;" glyph-name="ebreve" horiz-adv-x="417" d="M570 604Q548 604 529 611T495 632T472 665T464 709H489Q491 674 514 654T572 634Q607 634 634 654T672 709H697Q685 661 650 633T570 604ZM160 -7Q126 -7 100 4T55 36T28 85T18 146Q18 225
46 293T119 410T217 488T321 516Q367 516 394 492T421 423Q421 373 391 339T310 283T196 249T63 230Q59 210 57 191T55 151Q55 93 82 59T169 24Q225 24 271 47T354 99L350 69Q336 57 317 44T273 19T221 0T160 -7ZM317 488Q280 488 243 471T172 423T112 350T70 256Q131
263 188 273T289 302T359 349T385 421Q385 451 367 469T317 488Z" />
<glyph unicode="&#x116;" glyph-name="Edotaccent" horiz-adv-x="560" d="M408 745Q395 745 388 753T380 772Q380 785 388 794T410 803Q423 803 430 795T438 776Q438 763 430 754T408 745ZM-26 22L62 31L222 662L136 671L140 693H589L575 539H551L550 664H262L187
370H370L401 465H425L378 247H354L366 342H180L101 29H436L491 172H514L467 0H-31L-26 22Z" />
<glyph unicode="&#x117;" glyph-name="edotaccent" horiz-adv-x="417" d="M581 635Q568 635 561 643T553 662Q553 675 561 684T583 693Q596 693 603 685T611 666Q611 653 603 644T581 635ZM160 -7Q126 -7 100 4T55 36T28 85T18 146Q18 225 46 293T119 410T217
488T321 516Q367 516 394 492T421 423Q421 373 391 339T310 283T196 249T63 230Q59 210 57 191T55 151Q55 93 82 59T169 24Q225 24 271 47T354 99L350 69Q336 57 317 44T273 19T221 0T160 -7ZM317 488Q280 488 243 471T172 423T112 350T70 256Q131 263 188 273T289
302T359 349T385 421Q385 451 367 469T317 488Z" />
<glyph unicode="&#x118;" glyph-name="Eogonek" horiz-adv-x="560" d="M-26 22L62 31L222 662L136 671L140 693H589L575 539H551L550 664H262L187 370H370L401 465H425L378 247H354L366 342H180L101 29H436L491 172H514L467 0H413Q395 -15 378 -31T346 -65T324
-99T315 -134Q315 -172 361 -172Q375 -172 387 -170T406 -166L400 -189Q391 -193 380 -195T353 -198Q318 -198 299 -181T280 -135Q280 -115 289 -96T312 -60T344 -27T377 0H-31L-26 22Z" />
<glyph unicode="&#x119;" glyph-name="eogonek" horiz-adv-x="417" d="M175 -198Q140 -198 121 -181T102 -135Q102 -116 111 -98T134 -63T166 -31T202 -3Q183 -7 160 -7Q126 -7 100 4T55 36T28 85T18 146Q18 225 46 293T119 410T217 488T321 516Q367 516 394 492T421
423Q421 373 391 339T310 283T196 249T63 230Q59 210 57 191T55 151Q55 93 82 59T169 24Q225 24 271 47T354 99L350 69Q335 55 318 44T282 22T246 0T212 -25Q181 -51 159 -77T137 -134Q137 -172 183 -172Q197 -172 209 -170T228 -166L222 -189Q213 -193 202 -195T175
-198ZM317 488Q280 488 243 471T172 423T112 350T70 256Q131 263 188 273T289 302T359 349T385 421Q385 451 367 469T317 488Z" />
<glyph unicode="&#x11a;" glyph-name="Ecaron" horiz-adv-x="560" d="M535 809L413 726H391L299 811L314 825L405 763L525 825L535 809ZM-26 22L62 31L222 662L136 671L140 693H589L575 539H551L550 664H262L187 370H370L401 465H425L378 247H354L366 342H180L101
29H436L491 172H514L467 0H-31L-26 22Z" />
<glyph unicode="&#x11b;" glyph-name="ecaron" horiz-adv-x="417" d="M160 -7Q126 -7 100 4T55 36T28 85T18 146Q18 225 46 293T119 410T217 488T321 516Q367 516 394 492T421 423Q421 373 391 339T310 283T196 249T63 230Q59 210 57 191T55 151Q55 93 82 59T169
24Q225 24 271 47T354 99L350 69Q336 57 317 44T273 19T221 0T160 -7ZM317 488Q280 488 243 471T172 423T112 350T70 256Q131 263 188 273T289 302T359 349T385 421Q385 451 367 469T317 488ZM702 700L577 596H555L474 702L489 716L570 633L692 716L702 700Z" />
<glyph unicode="&#x11c;" glyph-name="Gcircumflex" horiz-adv-x="642" d="M312 -11Q258 -11 210 4T126 51T70 130T49 241Q49 298 62 352T97 453T151 540T217 609Q270 654 331 679T459 704Q524 704 563 695T631 672L612 532H588L592 647Q574 659 543 667T455 676Q397
676 341 652T236 585Q204 556 177 519T131 437T102 344T91 242Q91 187 107 145T152 75T221 33T312 18Q360 18 395 26T459 46L514 262L419 270L425 292H640L634 270L553 262L492 21Q454 7 409 -2T312 -11ZM342 738L464 821H486L578 736L563 722L472 784L352 722L342
738Z" />
<glyph unicode="&#x11d;" glyph-name="gcircumflex" horiz-adv-x="404" d="M432 617L557 721H579L660 615L645 601L564 684L442 601L432 617ZM129 -197Q81 -197 41 -190T-29 -168T-74 -132T-91 -83Q-91 -56 -76 -33T-36 9T23 43T94 71Q88 79 83 89T77 116Q77 145
90 166T118 202Q64 231 64 304Q64 351 81 390T126 456T191 499T266 515Q297 515 324 504L463 512L455 481L352 487Q369 472 378 450T387 398Q387 351 370 312T325 245T261 202T186 187Q157 187 137 194Q128 183 119 168T110 133Q110 120 114 111T129 92T161 75T213
54Q251 40 277 28T318 2T341 -28T348 -65Q348 -91 335 -115T294 -157T226 -186T129 -197ZM203 22Q178 31 158 39T120 56Q85 45 54 31T-1 0T-39 -36T-53 -79Q-53 -125 -3 -147T132 -169Q180 -169 214 -160T269 -137T301 -106T312 -70Q312 -58 309 -47T294 -26T262
-4T203 22ZM188 213Q221 213 250 227T302 265T338 324T352 400Q352 443 330 466T264 489Q231 489 201 475T149 437T113 378T99 303Q99 259 121 236T188 213Z" />
<glyph unicode="&#x11e;" glyph-name="Gbreve" horiz-adv-x="642" d="M312 -11Q258 -11 210 4T126 51T70 130T49 241Q49 298 62 352T97 453T151 540T217 609Q270 654 331 679T459 704Q524 704 563 695T631 672L612 532H588L592 647Q574 659 543 667T455 676Q397
676 341 652T236 585Q204 556 177 519T131 437T102 344T91 242Q91 187 107 145T152 75T221 33T312 18Q360 18 395 26T459 46L514 262L419 270L425 292H640L634 270L553 262L492 21Q454 7 409 -2T312 -11ZM467 734Q424 734 394 759T361 829H388Q392 797 414 781T469
764Q502 764 527 780T565 829H592Q578 784 545 759T467 734Z" />
<glyph unicode="&#x11f;" glyph-name="gbreve" horiz-adv-x="404" d="M129 -197Q81 -197 41 -190T-29 -168T-74 -132T-91 -83Q-91 -56 -76 -33T-36 9T23 43T94 71Q88 79 83 89T77 116Q77 145 90 166T118 202Q64 231 64 304Q64 351 81 390T126 456T191 499T266
515Q297 515 324 504L463 512L455 481L352 487Q369 472 378 450T387 398Q387 351 370 312T325 245T261 202T186 187Q157 187 137 194Q128 183 119 168T110 133Q110 120 114 111T129 92T161 75T213 54Q251 40 277 28T318 2T341 -28T348 -65Q348 -91 335 -115T294
-157T226 -186T129 -197ZM203 22Q178 31 158 39T120 56Q85 45 54 31T-1 0T-39 -36T-53 -79Q-53 -125 -3 -147T132 -169Q180 -169 214 -160T269 -137T301 -106T312 -70Q312 -58 309 -47T294 -26T262 -4T203 22ZM188 213Q221 213 250 227T302 265T338 324T352 400Q352
443 330 466T264 489Q231 489 201 475T149 437T113 378T99 303Q99 259 121 236T188 213ZM551 604Q529 604 510 611T476 632T453 665T445 709H470Q472 674 495 654T553 634Q588 634 615 654T653 709H678Q666 661 631 633T551 604Z" />
<glyph unicode="&#x120;" glyph-name="Gdotaccent" horiz-adv-x="642" d="M312 -11Q258 -11 210 4T126 51T70 130T49 241Q49 298 62 352T97 453T151 540T217 609Q270 654 331 679T459 704Q524 704 563 695T631 672L612 532H588L592 647Q574 659 543 667T455 676Q397
676 341 652T236 585Q204 556 177 519T131 437T102 344T91 242Q91 187 107 145T152 75T221 33T312 18Q360 18 395 26T459 46L514 262L419 270L425 292H640L634 270L553 262L492 21Q454 7 409 -2T312 -11ZM468 745Q455 745 448 753T440 772Q440 785 448 794T470
803Q483 803 490 795T498 776Q498 763 490 754T468 745Z" />
<glyph unicode="&#x121;" glyph-name="gdotaccent" horiz-adv-x="404" d="M550 635Q537 635 530 643T522 662Q522 675 530 684T552 693Q565 693 572 685T580 666Q580 653 572 644T550 635ZM129 -197Q81 -197 41 -190T-29 -168T-74 -132T-91 -83Q-91 -56 -76 -33T-36
9T23 43T94 71Q88 79 83 89T77 116Q77 145 90 166T118 202Q64 231 64 304Q64 351 81 390T126 456T191 499T266 515Q297 515 324 504L463 512L455 481L352 487Q369 472 378 450T387 398Q387 351 370 312T325 245T261 202T186 187Q157 187 137 194Q128 183 119 168T110
133Q110 120 114 111T129 92T161 75T213 54Q251 40 277 28T318 2T341 -28T348 -65Q348 -91 335 -115T294 -157T226 -186T129 -197ZM203 22Q178 31 158 39T120 56Q85 45 54 31T-1 0T-39 -36T-53 -79Q-53 -125 -3 -147T132 -169Q180 -169 214 -160T269 -137T301 -106T312
-70Q312 -58 309 -47T294 -26T262 -4T203 22ZM188 213Q221 213 250 227T302 265T338 324T352 400Q352 443 330 466T264 489Q231 489 201 475T149 437T113 378T99 303Q99 259 121 236T188 213Z" />
<glyph unicode="&#x122;" glyph-name="Gcommaaccent" horiz-adv-x="642" d="M312 -11Q258 -11 210 4T126 51T70 130T49 241Q49 298 62 352T97 453T151 540T217 609Q270 654 331 679T459 704Q524 704 563 695T631 672L612 532H588L592 647Q574 659 543 667T455
676Q397 676 341 652T236 585Q204 556 177 519T131 437T102 344T91 242Q91 187 107 145T152 75T221 33T312 18Q360 18 395 26T459 46L514 262L419 270L425 292H640L634 270L553 262L492 21Q454 7 409 -2T312 -11ZM200 -176Q214 -148 226 -114T247 -42H287Q277 -79
262 -113T227 -176H200Z" />
<glyph unicode="&#x123;" glyph-name="gcommaaccent" horiz-adv-x="404" d="M129 -197Q81 -197 41 -190T-29 -168T-74 -132T-91 -83Q-91 -56 -76 -33T-36 9T23 43T94 71Q88 79 83 89T77 116Q77 145 90 166T118 202Q64 231 64 304Q64 351 81 390T126 456T191 499T266
515Q297 515 324 504L463 512L455 481L352 487Q369 472 378 450T387 398Q387 351 370 312T325 245T261 202T186 187Q157 187 137 194Q128 183 119 168T110 133Q110 120 114 111T129 92T161 75T213 54Q251 40 277 28T318 2T341 -28T348 -65Q348 -91 335 -115T294
-157T226 -186T129 -197ZM203 22Q178 31 158 39T120 56Q85 45 54 31T-1 0T-39 -36T-53 -79Q-53 -125 -3 -147T132 -169Q180 -169 214 -160T269 -137T301 -106T312 -70Q312 -58 309 -47T294 -26T262 -4T203 22ZM188 213Q221 213 250 227T302 265T338 324T352 400Q352
443 330 466T264 489Q231 489 201 475T149 437T113 378T99 303Q99 259 121 236T188 213ZM613 747Q599 719 587 685T566 613H526Q536 650 551 684T586 747H613Z" />
<glyph unicode="&#x124;" glyph-name="Hcircumflex" horiz-adv-x="697" d="M-28 22L63 30L224 662L136 671L142 693H365L359 671L263 662L189 372H577L650 662L557 671L563 693H785L779 671L690 662L530 30L616 22L610 0H394L400 22L490 30L570 345H182L102 30L195
22L189 0H-34L-28 22ZM354 738L476 821H498L590 736L575 722L484 784L364 722L354 738Z" />
<glyph unicode="&#x125;" glyph-name="hcircumflex" horiz-adv-x="506" d="M276 -5Q254 -5 241 2T217 17L221 36Q231 32 243 29T266 25Q287 25 308 33T346 70Q368 107 387 153T421 247T444 340T453 418Q453 483 405 483Q377 483 342 464T270 414T199 348T138 278L54
0H17L230 704L133 707L138 728L270 743L276 738L155 336H157Q187 370 219 402T286 460T352 501T415 516Q453 516 472 491T492 422Q492 384 482 334T454 233T416 134T373 55Q351 23 328 9T276 -5ZM269 783L391 866H413L505 781L490 767L399 829L279 767L269 783Z"
/>
<glyph unicode="&#x126;" glyph-name="Hbar" horiz-adv-x="697" d="M97 526H189L224 662L136 671L142 693H365L359 671L263 662L228 526H615L650 662L557 671L563 693H785L779 671L690 662L655 526H751L744 502H649L530 30L616 22L610 0H394L400 22L490 30L570
345H182L102 30L195 22L189 0H-34L-28 22L63 30L183 502H90L97 526ZM577 372L609 502H222L189 372H577Z" />
<glyph unicode="&#x127;" glyph-name="hbar" horiz-adv-x="506" d="M276 -5Q254 -5 241 2T217 17L221 36Q231 32 243 29T266 25Q287 25 308 33T346 70Q368 107 387 153T421 247T444 340T453 418Q453 483 405 483Q377 483 342 464T270 414T199 348T138 278L54 0H17L202
612H109L115 637H209L230 704L133 707L138 728L270 743L276 738L245 637H380L374 612H238L155 336H157Q187 370 219 402T286 460T352 501T415 516Q453 516 472 491T492 422Q492 384 482 334T454 233T416 134T373 55Q351 23 328 9T276 -5Z" />
<glyph unicode="&#x128;" glyph-name="Itilde" horiz-adv-x="277" d="M-28 22L66 30L226 663L135 671L141 693H364L358 671L265 663L105 30L195 22L189 0H-34L-28 22ZM400 751Q417 783 436 799T480 816Q494 816 507 811T534 799T560 788T585 782Q602 782 614 792T642
825L662 815Q645 783 626 766T583 749Q569 749 555 754T528 766T502 777T477 783Q445 783 419 741L400 751Z" />
<glyph unicode="&#x129;" glyph-name="itilde" horiz-adv-x="227" d="M51 -7Q40 -7 34 0T32 27L168 480L74 478L79 499L209 517L214 512L69 28L163 31L158 12Q147 9 133 6T104 0T75 -5T51 -7ZM88 631Q105 663 124 679T168 696Q182 696 195 691T222 679T248 668T273
662Q290 662 302 672T330 705L350 695Q333 663 314 646T271 629Q257 629 243 634T216 646T190 657T165 663Q133 663 107 621L88 631Z" />
<glyph unicode="&#x12a;" glyph-name="Imacron" horiz-adv-x="277" d="M417 778H633L627 751H411L417 778ZM-28 22L66 30L226 663L135 671L141 693H364L358 671L265 663L105 30L195 22L189 0H-34L-28 22Z" />
<glyph unicode="&#x12b;" glyph-name="imacron" horiz-adv-x="227" d="M51 -7Q40 -7 34 0T32 27L168 480L74 478L79 499L209 517L214 512L69 28L163 31L158 12Q147 9 133 6T104 0T75 -5T51 -7ZM118 676H294L288 649H112L118 676Z" />
<glyph unicode="&#x12c;" glyph-name="Ibreve" horiz-adv-x="277" d="M526 734Q483 734 453 759T420 829H447Q451 797 473 781T528 764Q561 764 586 780T624 829H651Q637 784 604 759T526 734ZM-28 22L66 30L226 663L135 671L141 693H364L358 671L265 663L105
30L195 22L189 0H-34L-28 22Z" />
<glyph unicode="&#x12d;" glyph-name="ibreve" horiz-adv-x="227" d="M51 -7Q40 -7 34 0T32 27L168 480L74 478L79 499L209 517L214 512L69 28L163 31L158 12Q147 9 133 6T104 0T75 -5T51 -7ZM210 604Q188 604 169 611T135 632T112 665T104 709H129Q131 674 154
654T212 634Q247 634 274 654T312 709H337Q325 661 290 633T210 604Z" />
<glyph unicode="&#x12e;" glyph-name="Iogonek" horiz-adv-x="277" d="M-28 22L66 30L226 663L135 671L141 693H364L358 671L265 663L105 30L195 22L189 0H103Q88 -15 73 -31T45 -64T24 -98T16 -133Q16 -172 62 -172Q76 -172 88 -170T107 -166L101 -189Q92 -193
81 -195T54 -198Q19 -198 0 -181T-19 -134Q-19 -114 -10 -95T12 -59T40 -27T70 0H-34L-28 22Z" />
<glyph unicode="&#x12f;" glyph-name="iogonek" horiz-adv-x="227" d="M42 -198Q7 -198 -12 -181T-31 -135Q-31 -116 -23 -98T-1 -63T28 -32T60 -6Q42 -7 35 0T32 27L168 480L74 478L79 499L209 517L214 512L69 28L163 31L158 12Q141 8 129 5T107 -3T86 -15T64
-33Q36 -59 20 -85T4 -134Q4 -172 50 -172Q64 -172 76 -170T95 -166L89 -189Q80 -193 69 -195T42 -198ZM225 635Q212 635 205 643T197 662Q197 675 205 684T227 693Q240 693 247 685T255 666Q255 653 247 644T225 635Z" />
<glyph unicode="&#x130;" glyph-name="Idotaccent" horiz-adv-x="277" d="M-28 22L66 30L226 663L135 671L141 693H364L358 671L265 663L105 30L195 22L189 0H-34L-28 22ZM527 745Q514 745 507 753T499 772Q499 785 507 794T529 803Q542 803 549 795T557 776Q557
763 549 754T527 745Z" />
<glyph unicode="&#x131;" glyph-name="dotlessi" horiz-adv-x="227" d="M51 -7Q40 -7 34 0T32 27L168 480L74 478L79 499L209 517L214 512L69 28L163 31L158 12Q147 9 133 6T104 0T75 -5T51 -7Z" />
<glyph unicode="&#x132;" glyph-name="IJ" horiz-adv-x="649" d="M-28 22L66 30L226 663L135 671L141 693H364L358 671L265 663L105 30L195 22L189 0H-34L-28 22ZM341 -7Q294 -7 265 10T235 62Q235 79 242 95T258 119H285Q280 108 276 96T272 69Q272 47 288 35T340
23Q451 23 487 169L612 662L522 671L528 693H749L743 671L651 662L524 161Q505 84 461 39T341 -7Z" />
<glyph unicode="&#x133;" glyph-name="ij" horiz-adv-x="439" d="M51 -7Q40 -7 34 0T32 27L168 480L74 478L79 499L209 517L214 512L69 28L163 31L158 12Q147 9 133 6T104 0T75 -5T51 -7ZM225 635Q212 635 205 643T197 662Q197 675 205 684T227 693Q240 693 247
685T255 666Q255 653 247 644T225 635ZM115 -198Q88 -198 65 -185T41 -145Q41 -130 47 -120T62 -101H84Q80 -108 77 -118T74 -140Q74 -155 86 -162T118 -170Q157 -170 183 -143T229 -54L389 480L295 478L300 499L430 517L435 512L266 -45Q244 -118 210 -158T115
-198ZM446 635Q433 635 426 643T418 662Q418 675 426 684T448 693Q461 693 468 685T476 666Q476 653 468 644T446 635Z" />
<glyph unicode="&#x134;" glyph-name="Jcircumflex" horiz-adv-x="392" d="M83 -7Q36 -7 7 10T-23 62Q-23 79 -16 95T0 119H27Q22 108 18 96T14 69Q14 47 30 35T82 23Q193 23 229 169L354 662L264 671L270 693H491L485 671L393 662L266 161Q247 84 203 39T83 -7ZM270
738L392 821H414L506 736L491 722L400 784L280 722L270 738Z" />
<glyph unicode="&#x135;" glyph-name="jcircumflex" horiz-adv-x="222" d="M-102 -198Q-129 -198 -152 -185T-176 -145Q-176 -130 -170 -120T-155 -101H-133Q-137 -108 -140 -118T-143 -140Q-143 -155 -131 -162T-99 -170Q-60 -170 -34 -143T12 -54L172 480L78
478L83 499L213 517L218 512L49 -45Q27 -118 -7 -158T-102 -198ZM88 617L213 721H235L316 615L301 601L220 684L98 601L88 617Z" />
<glyph unicode="&#x136;" glyph-name="Kcommaaccent" horiz-adv-x="612" d="M-30 22L61 30L222 663L135 671L139 693H363L359 671L261 663L100 30L194 22L189 0H-34L-30 22ZM236 335L239 349L577 663L504 671L509 693H683L678 671L620 664L273 343L455 31L535
22L531 0H430L236 335ZM194 -176Q208 -148 220 -114T241 -42H281Q271 -79 256 -113T221 -176H194Z" />
<glyph unicode="&#x137;" glyph-name="kcommaaccent" horiz-adv-x="463" d="M229 704L132 707L137 728L269 743L275 738L53 0H16L229 704ZM445 482Q428 482 410 473T364 441T300 378T207 275L317 28L404 31L399 12Q379 6 354 0T315 -7Q301 -7 292 5T272 43L173
267L175 277Q239 352 281 398T354 471T405 506T449 515Q465 515 474 510T494 496L489 474Q481 478 471 480T445 482ZM104 -176Q118 -148 130 -114T151 -42H191Q181 -79 166 -113T131 -176H104Z" />
<glyph unicode="&#x139;" glyph-name="Lacute" horiz-adv-x="527" d="M-29 22L59 30L219 663L133 671L137 693H363L358 671L258 663L97 29H401L453 175H477L433 0H-34L-29 22ZM433 747L616 830L629 798L441 727L433 747Z" />
<glyph unicode="&#x13a;" glyph-name="lacute" horiz-adv-x="234" d="M50 -7Q38 -7 32 0T31 27L227 704L128 707L133 728L267 743L273 738L66 27L165 31L160 12Q150 9 136 6T105 0T75 -5T50 -7ZM423 792L606 875L619 843L431 772L423 792Z" />
<glyph unicode="&#x13b;" glyph-name="Lcommaaccent" horiz-adv-x="527" d="M-29 22L59 30L219 663L133 671L137 693H363L358 671L258 663L97 29H401L453 175H477L433 0H-34L-29 22ZM149 -176Q163 -148 175 -114T196 -42H236Q226 -79 211 -113T176 -176H149Z" />
<glyph unicode="&#x13c;" glyph-name="lcommaaccent" horiz-adv-x="234" d="M50 -7Q38 -7 32 0T31 27L227 704L128 707L133 728L267 743L273 738L66 27L165 31L160 12Q150 9 136 6T105 0T75 -5T50 -7ZM240 -176Q254 -148 266 -114T287 -42H327Q317 -79 302 -113T267
-176H240Z" />
<glyph unicode="&#x13d;" glyph-name="Lcaron" horiz-adv-x="527" d="M-29 22L59 30L219 663L133 671L137 693H363L358 671L258 663L97 29H401L453 175H477L433 0H-34L-29 22ZM397 565L449 709L487 700L423 558L397 565Z" />
<glyph unicode="&#x13e;" glyph-name="lcaron" horiz-adv-x="234" d="M50 -7Q38 -7 32 0T31 27L227 704L128 707L133 728L267 743L273 738L66 27L165 31L160 12Q150 9 136 6T105 0T75 -5T50 -7ZM534 600L586 744L624 735L560 593L534 600Z" />
<glyph unicode="&#x13f;" glyph-name="Ldot" horiz-adv-x="527" d="M-29 22L59 30L219 663L133 671L137 693H363L358 671L258 663L97 29H401L453 175H477L433 0H-34L-29 22ZM490 344Q476 344 468 353T460 373Q460 387 470 396T494 406Q508 406 516 397T524 377Q524
363 514 354T490 344Z" />
<glyph unicode="&#x140;" glyph-name="ldot" horiz-adv-x="234" d="M261 342Q275 342 285 351T295 375Q295 386 287 395T265 404Q251 404 241 395T231 371Q231 360 239 351T261 342ZM50 -7Q38 -7 32 0T31 27L227 704L128 707L133 728L267 743L273 738L66 27L165
31L160 12Q150 9 136 6T105 0T75 -5T50 -7Z" />
<glyph unicode="&#x141;" glyph-name="Lslash" horiz-adv-x="527" d="M31 260L127 300L219 663L133 671L137 693H363L358 671L258 663L170 318L414 420L406 388L162 286L97 29H401L453 175H477L433 0H-34L-29 22L59 30L119 268L23 228L31 260Z" />
<glyph unicode="&#x142;" glyph-name="lslash" horiz-adv-x="237" d="M31 321L133 376L228 702L127 705L132 728L267 743L273 738L174 398L282 457L274 423L164 363L66 27L165 31L160 12Q150 9 136 6T105 0T75 -5T50 -7Q38 -7 32 0T31 27L122 341L23 287L31 321Z" />
<glyph unicode="&#x143;" glyph-name="Nacute" horiz-adv-x="686" d="M-29 22L62 31L222 662L135 671L141 693H283L505 72H507L656 662L563 671L569 693H779L773 671L689 662L521 0H491L256 659H254L95 31L191 22L186 0H-34L-29 22ZM390 747L573 830L586 798L398
727L390 747Z" />
<glyph unicode="&#x144;" glyph-name="nacute" horiz-adv-x="518" d="M345 -7Q334 -7 328 0T326 27L441 389Q452 427 452 446Q452 483 419 483Q391 483 351 458T268 397T188 319T127 243L53 0H16L163 480L73 478L78 499L202 517L207 512L141 301H143Q172 339 209
377T286 446T363 496T431 516Q460 516 475 499T490 450Q490 425 479 390L363 28L453 31L449 12Q438 9 425 6T397 0T369 -5T345 -7ZM282 612L449 717L466 686L292 593L282 612Z" />
<glyph unicode="&#x145;" glyph-name="Ncommaaccent" horiz-adv-x="686" d="M-29 22L62 31L222 662L135 671L141 693H283L505 72H507L656 662L563 671L569 693H779L773 671L689 662L521 0H491L256 659H254L95 31L191 22L186 0H-34L-29 22ZM240 -176Q254 -148 266
-114T287 -42H327Q317 -79 302 -113T267 -176H240Z" />
<glyph unicode="&#x146;" glyph-name="ncommaaccent" horiz-adv-x="518" d="M345 -7Q334 -7 328 0T326 27L441 389Q452 427 452 446Q452 483 419 483Q391 483 351 458T268 397T188 319T127 243L53 0H16L163 480L73 478L78 499L202 517L207 512L141 301H143Q172
339 209 377T286 446T363 496T431 516Q460 516 475 499T490 450Q490 425 479 390L363 28L453 31L449 12Q438 9 425 6T397 0T369 -5T345 -7ZM125 -176Q139 -148 151 -114T172 -42H212Q202 -79 187 -113T152 -176H125Z" />
<glyph unicode="&#x147;" glyph-name="Ncaron" horiz-adv-x="686" d="M-29 22L62 31L222 662L135 671L141 693H283L505 72H507L656 662L563 671L569 693H779L773 671L689 662L521 0H491L256 659H254L95 31L191 22L186 0H-34L-29 22ZM602 809L480 726H458L366 811L381
825L472 763L592 825L602 809Z" />
<glyph unicode="&#x148;" glyph-name="ncaron" horiz-adv-x="518" d="M345 -7Q334 -7 328 0T326 27L441 389Q452 427 452 446Q452 483 419 483Q391 483 351 458T268 397T188 319T127 243L53 0H16L163 480L73 478L78 499L202 517L207 512L141 301H143Q172 339 209
377T286 446T363 496T431 516Q460 516 475 499T490 450Q490 425 479 390L363 28L453 31L449 12Q438 9 425 6T397 0T369 -5T345 -7ZM478 700L353 596H331L250 702L265 716L346 633L468 716L478 700Z" />
<glyph unicode="&#x149;" glyph-name="napostrophe" horiz-adv-x="518" d="M345 -7Q334 -7 328 0T326 27L441 389Q452 427 452 446Q452 483 419 483Q391 483 351 458T268 397T188 319T127 243L53 0H16L163 480L73 478L78 499L202 517L207 512L141 301H143Q172
339 209 377T286 446T363 496T431 516Q460 516 475 499T490 450Q490 425 479 390L363 28L453 31L449 12Q438 9 425 6T397 0T369 -5T345 -7ZM288 528Q308 566 320 607T341 693H384Q364 599 313 528H288Z" />
<glyph unicode="&#x14a;" glyph-name="Eng" horiz-adv-x="686" d="M-29 22L62 31L222 662L135 671L141 693H283L505 72H507L656 662L563 671L569 693H779L773 671L689 662L522 3Q501 -83 461 -127T359 -171Q321 -171 295 -156T268 -109Q268 -95 273 -84T286 -64H311Q303
-82 303 -103Q303 -142 360 -142Q378 -142 396 -136T432 -113T464 -68T490 3L256 659H254L95 31L191 22L186 0H-34L-29 22Z" />
<glyph unicode="&#x14b;" glyph-name="eng" horiz-adv-x="508" d="M211 -200Q186 -200 172 -193T148 -178L152 -159Q162 -163 174 -166T197 -170Q227 -170 248 -160T286 -121Q305 -91 324 -49T362 41T397 141T425 243T445 340T452 422Q452 483 405 483Q377 483
342 464T270 414T199 348T138 278L54 0H17L163 480L73 478L78 499L202 517L207 512L151 332H153Q183 366 216 399T284 458T351 500T415 516Q453 516 472 493T491 426Q491 390 483 342T462 239T430 130T392 24T352 -69T313 -138Q290 -170 265 -185T211 -200Z" />
<glyph unicode="&#x14c;" glyph-name="Omacron" horiz-adv-x="653" d="M276 -10Q225 -10 183 6T110 54T63 130T46 232Q46 329 77 414T161 564T283 665T428 703Q481 703 523 686T594 638T640 562T656 461Q656 364 626 279T545 129T424 28T276 -10ZM278 19Q341 19
394 45T490 116Q520 148 543 188T582 273T607 368T616 467Q616 571 565 622T427 674Q369 674 319 651T225 586Q193 554 168 513T124 425T96 328T86 225Q86 127 136 73T278 19ZM340 778H556L550 751H334L340 778Z" />
<glyph unicode="&#x14d;" glyph-name="omacron" horiz-adv-x="476" d="M171 -9Q98 -9 59 37T20 158Q20 236 45 301T110 414T202 489T305 516Q379 516 417 471T455 350Q455 273 431 207T366 93T275 18T171 -9ZM173 19Q219 19 263 45T342 117T398 224T419 357Q419
417 390 452T303 488Q257 488 213 462T134 391T78 284T57 152Q57 92 86 56T173 19ZM487 676H703L697 649H481L487 676Z" />
<glyph unicode="&#x14e;" glyph-name="Obreve" horiz-adv-x="653" d="M276 -10Q225 -10 183 6T110 54T63 130T46 232Q46 329 77 414T161 564T283 665T428 703Q481 703 523 686T594 638T640 562T656 461Q656 364 626 279T545 129T424 28T276 -10ZM278 19Q341 19
394 45T490 116Q520 148 543 188T582 273T607 368T616 467Q616 571 565 622T427 674Q369 674 319 651T225 586Q193 554 168 513T124 425T96 328T86 225Q86 127 136 73T278 19ZM449 734Q406 734 376 759T343 829H370Q374 797 396 781T451 764Q484 764 509 780T547
829H574Q560 784 527 759T449 734Z" />
<glyph unicode="&#x14f;" glyph-name="obreve" horiz-adv-x="476" d="M585 604Q563 604 544 611T510 632T487 665T479 709H504Q506 674 529 654T587 634Q622 634 649 654T687 709H712Q700 661 665 633T585 604ZM171 -9Q98 -9 59 37T20 158Q20 236 45 301T110 414T202
489T305 516Q379 516 417 471T455 350Q455 273 431 207T366 93T275 18T171 -9ZM173 19Q219 19 263 45T342 117T398 224T419 357Q419 417 390 452T303 488Q257 488 213 462T134 391T78 284T57 152Q57 92 86 56T173 19Z" />
<glyph unicode="&#x150;" glyph-name="Ohungarumlaut" horiz-adv-x="653" d="M364 742L476 870L500 848L382 728L364 742ZM484 742L596 870L620 848L501 728L484 742ZM276 -10Q225 -10 183 6T110 54T63 130T46 232Q46 329 77 414T161 564T283 665T428 703Q481
703 523 686T594 638T640 562T656 461Q656 364 626 279T545 129T424 28T276 -10ZM278 19Q341 19 394 45T490 116Q520 148 543 188T582 273T607 368T616 467Q616 571 565 622T427 674Q369 674 319 651T225 586Q193 554 168 513T124 425T96 328T86 225Q86 127 136
73T278 19Z" />
<glyph unicode="&#x151;" glyph-name="ohungarumlaut" horiz-adv-x="476" d="M243 595L370 736L394 714L261 581L243 595ZM363 595L490 736L514 714L380 581L363 595ZM171 -9Q98 -9 59 37T20 158Q20 236 45 301T110 414T202 489T305 516Q379 516 417 471T455 350Q455
273 431 207T366 93T275 18T171 -9ZM173 19Q219 19 263 45T342 117T398 224T419 357Q419 417 390 452T303 488Q257 488 213 462T134 391T78 284T57 152Q57 92 86 56T173 19Z" />
<glyph unicode="&#x152;" glyph-name="OE" horiz-adv-x="923" d="M326 0Q183 0 117 63T50 245Q50 335 77 416T156 559T287 657T466 693H950L936 539H912L911 664H629L553 370H731L762 465H786L739 247H715L727 342H548L467 29H797L852 172H875L828 0H326ZM428
29L590 664H466Q395 664 338 645T235 590Q164 534 127 442T90 240Q90 130 148 80T331 29H428Z" />
<glyph unicode="&#x153;" glyph-name="oe" horiz-adv-x="792" d="M535 -7Q468 -7 434 34T397 140Q357 71 297 31T171 -9Q98 -9 59 37T20 158Q20 236 45 301T110 414T202 489T305 516Q378 516 414 471T451 347Q473 386 502 417T563 470T629 504T696 516Q742 516
769 492T796 423Q796 373 766 339T685 283T571 249T438 230Q434 210 432 191T430 151Q430 93 457 59T544 24Q600 24 646 47T729 99L725 69Q711 57 692 44T648 19T596 0T535 -7ZM173 19Q219 19 263 45T342 117T398 224T419 357Q419 417 390 452T303 488Q257 488
213 462T134 391T78 284T57 152Q57 92 86 56T173 19ZM692 488Q655 488 618 471T547 423T487 350T445 256Q506 263 563 273T664 302T734 349T760 421Q760 451 742 469T692 488Z" />
<glyph unicode="&#x154;" glyph-name="Racute" horiz-adv-x="600" d="M307 747L490 830L503 798L315 727L307 747ZM-30 22L61 31L222 662L136 671L140 693H386Q438 693 474 682T532 650T565 603T575 543Q575 455 522 401T367 333V331L471 30L542 22L538 0H437L329
327H177L100 31L188 22L183 0H-34L-30 22ZM319 354Q370 354 410 368T477 406T519 465T534 539Q534 566 527 588T502 627T455 653T380 663H261L182 354H319Z" />
<glyph unicode="&#x155;" glyph-name="racute" horiz-adv-x="392" d="M163 480L73 478L78 499L202 517L207 512L138 294H140Q162 328 192 367T256 439T322 494T385 516Q405 516 416 505T427 472Q427 455 420 434T401 396H375Q381 411 385 430T390 461Q390 470
386 476T372 482Q348 482 316 458T250 398T183 317T123 231L53 0H16L163 480ZM489 612L656 717L673 686L499 593L489 612Z" />
<glyph unicode="&#x156;" glyph-name="Rcommaaccent" horiz-adv-x="600" d="M-30 22L61 31L222 662L136 671L140 693H386Q438 693 474 682T532 650T565 603T575 543Q575 455 522 401T367 333V331L471 30L542 22L538 0H437L329 327H177L100 31L188 22L183 0H-34L-30
22ZM319 354Q370 354 410 368T477 406T519 465T534 539Q534 566 527 588T502 627T455 653T380 663H261L182 354H319ZM196 -176Q210 -148 222 -114T243 -42H283Q273 -79 258 -113T223 -176H196Z" />
<glyph unicode="&#x157;" glyph-name="rcommaaccent" horiz-adv-x="392" d="M163 480L73 478L78 499L202 517L207 512L138 294H140Q162 328 192 367T256 439T322 494T385 516Q405 516 416 505T427 472Q427 455 420 434T401 396H375Q381 411 385 430T390 461Q390
470 386 476T372 482Q348 482 316 458T250 398T183 317T123 231L53 0H16L163 480ZM-41 -176Q-27 -148 -15 -114T6 -42H46Q36 -79 21 -113T-14 -176H-41Z" />
<glyph unicode="&#x158;" glyph-name="Rcaron" horiz-adv-x="600" d="M-30 22L61 31L222 662L136 671L140 693H386Q438 693 474 682T532 650T565 603T575 543Q575 455 522 401T367 333V331L471 30L542 22L538 0H437L329 327H177L100 31L188 22L183 0H-34L-30 22ZM319
354Q370 354 410 368T477 406T519 465T534 539Q534 566 527 588T502 627T455 653T380 663H261L182 354H319ZM519 809L397 726H375L283 811L298 825L389 763L509 825L519 809Z" />
<glyph unicode="&#x159;" glyph-name="rcaron" horiz-adv-x="392" d="M676 700L551 596H529L448 702L463 716L544 633L666 716L676 700ZM163 480L73 478L78 499L202 517L207 512L138 294H140Q162 328 192 367T256 439T322 494T385 516Q405 516 416 505T427 472Q427
455 420 434T401 396H375Q381 411 385 430T390 461Q390 470 386 476T372 482Q348 482 316 458T250 398T183 317T123 231L53 0H16L163 480Z" />
<glyph unicode="&#x15a;" glyph-name="Sacute" horiz-adv-x="476" d="M182 -8Q122 -8 74 6T-4 37L18 166H42L36 61Q59 45 96 33T188 21Q239 21 274 35T332 71T364 123T374 183Q374 209 369 228T352 263T318 296T264 334L222 361Q199 376 180 392T147 427T126 471T118
525Q118 563 131 595T171 652T237 689T327 703Q385 703 420 692T482 669L470 549H447L444 645Q430 653 403 663T325 674Q242 674 199 635T156 532Q156 508 160 489T175 453T202 421T244 390L287 363Q316 345 339 327T379 289T404 245T413 188Q413 152 401 117T361
54T289 9T182 -8ZM521 747L704 830L717 798L529 727L521 747Z" />
<glyph unicode="&#x15b;" glyph-name="sacute" horiz-adv-x="353" d="M125 -9Q94 -9 68 -3T24 15T-5 41T-16 73Q-16 90 -9 103T6 128H33Q28 116 25 105T21 80Q21 51 48 35T123 18Q156 18 182 27T226 51T253 86T263 131Q263 151 256 166T237 194T207 221T169 250Q147
267 130 282T101 312T83 343T76 380Q76 410 89 435T124 477T176 505T239 515Q293 515 324 498T356 447Q356 430 350 415T334 387H308Q321 416 321 442Q321 465 297 476T236 488Q210 488 187 481T147 460T120 428T110 386Q110 370 115 357T131 330T158 304T195 273Q217
255 236 240T269 209T290 176T298 136Q298 106 285 80T249 34T195 3T125 -9ZM450 612L617 717L634 686L460 593L450 612Z" />
<glyph unicode="&#x15c;" glyph-name="Scircumflex" horiz-adv-x="476" d="M481 738L603 821H625L717 736L702 722L611 784L491 722L481 738ZM182 -8Q122 -8 74 6T-4 37L18 166H42L36 61Q59 45 96 33T188 21Q239 21 274 35T332 71T364 123T374 183Q374 209 369
228T352 263T318 296T264 334L222 361Q199 376 180 392T147 427T126 471T118 525Q118 563 131 595T171 652T237 689T327 703Q385 703 420 692T482 669L470 549H447L444 645Q430 653 403 663T325 674Q242 674 199 635T156 532Q156 508 160 489T175 453T202 421T244
390L287 363Q316 345 339 327T379 289T404 245T413 188Q413 152 401 117T361 54T289 9T182 -8Z" />
<glyph unicode="&#x15d;" glyph-name="scircumflex" horiz-adv-x="353" d="M125 -9Q94 -9 68 -3T24 15T-5 41T-16 73Q-16 90 -9 103T6 128H33Q28 116 25 105T21 80Q21 51 48 35T123 18Q156 18 182 27T226 51T253 86T263 131Q263 151 256 166T237 194T207 221T169
250Q147 267 130 282T101 312T83 343T76 380Q76 410 89 435T124 477T176 505T239 515Q293 515 324 498T356 447Q356 430 350 415T334 387H308Q321 416 321 442Q321 465 297 476T236 488Q210 488 187 481T147 460T120 428T110 386Q110 370 115 357T131 330T158 304T195
273Q217 255 236 240T269 209T290 176T298 136Q298 106 285 80T249 34T195 3T125 -9ZM401 617L526 721H548L629 615L614 601L533 684L411 601L401 617Z" />
<glyph unicode="&#x15e;" glyph-name="Scedilla" horiz-adv-x="476" d="M80 -176Q146 -168 176 -154T206 -114Q206 -97 187 -88T124 -76L141 -6Q95 -1 58 11T-4 37L18 166H42L36 61Q59 45 96 33T188 21Q239 21 274 35T332 71T364 123T374 183Q374 209 369 228T352
263T318 296T264 334L222 361Q199 376 180 392T147 427T126 471T118 525Q118 563 131 595T171 652T237 689T327 703Q385 703 420 692T482 669L470 549H447L444 645Q430 653 403 663T325 674Q242 674 199 635T156 532Q156 508 160 489T175 453T202 421T244 390L287
363Q316 345 339 327T379 289T404 245T413 188Q413 152 401 117T361 54T289 9T182 -8H167L157 -50Q199 -54 221 -69T243 -109Q243 -184 74 -199L80 -176Z" />
<glyph unicode="&#x15f;" glyph-name="scedilla" horiz-adv-x="353" d="M21 -176Q87 -168 117 -154T147 -114Q147 -97 128 -88T65 -76L82 -5Q37 3 11 24T-16 73Q-16 90 -9 103T6 128H33Q28 116 25 105T21 80Q21 51 48 35T123 18Q156 18 182 27T226 51T253 86T263
131Q263 151 256 166T237 194T207 221T169 250Q147 267 130 282T101 312T83 343T76 380Q76 410 89 435T124 477T176 505T239 515Q293 515 324 498T356 447Q356 430 350 415T334 387H308Q321 416 321 442Q321 465 297 476T236 488Q210 488 187 481T147 460T120 428T110
386Q110 370 115 357T131 330T158 304T195 273Q217 255 236 240T269 209T290 176T298 136Q298 106 285 80T249 34T195 3T125 -9Q123 -9 120 -9T108 -8L98 -50Q140 -54 162 -69T184 -109Q184 -184 15 -199L21 -176Z" />
<glyph unicode="&#x160;" glyph-name="Scaron" horiz-adv-x="476" d="M182 -8Q122 -8 74 6T-4 37L18 166H42L36 61Q59 45 96 33T188 21Q239 21 274 35T332 71T364 123T374 183Q374 209 369 228T352 263T318 296T264 334L222 361Q199 376 180 392T147 427T126 471T118
525Q118 563 131 595T171 652T237 689T327 703Q385 703 420 692T482 669L470 549H447L444 645Q430 653 403 663T325 674Q242 674 199 635T156 532Q156 508 160 489T175 453T202 421T244 390L287 363Q316 345 339 327T379 289T404 245T413 188Q413 152 401 117T361
54T289 9T182 -8ZM734 809L612 726H590L498 811L513 825L604 763L724 825L734 809Z" />
<glyph unicode="&#x161;" glyph-name="scaron" horiz-adv-x="353" d="M125 -9Q94 -9 68 -3T24 15T-5 41T-16 73Q-16 90 -9 103T6 128H33Q28 116 25 105T21 80Q21 51 48 35T123 18Q156 18 182 27T226 51T253 86T263 131Q263 151 256 166T237 194T207 221T169 250Q147
267 130 282T101 312T83 343T76 380Q76 410 89 435T124 477T176 505T239 515Q293 515 324 498T356 447Q356 430 350 415T334 387H308Q321 416 321 442Q321 465 297 476T236 488Q210 488 187 481T147 460T120 428T110 386Q110 370 115 357T131 330T158 304T195 273Q217
255 236 240T269 209T290 176T298 136Q298 106 285 80T249 34T195 3T125 -9ZM646 700L521 596H499L418 702L433 716L514 633L636 716L646 700Z" />
<glyph unicode="&#x162;" glyph-name="Tcommaaccent" horiz-adv-x="552" d="M108 22L207 30L367 664H161L111 529H87L134 693H646L619 529H595L608 664H407L246 30L341 22L335 0H102L108 22ZM139 -176Q153 -148 165 -114T186 -42H226Q216 -79 201 -113T166 -176H139Z" />
<glyph unicode="&#x163;" glyph-name="tcommaaccent" horiz-adv-x="266" d="M81 498L156 509L193 634H230L192 508H316L309 478H183L68 98Q65 87 63 78T61 61Q61 24 103 24Q132 24 159 32T209 51L204 27Q184 15 156 4T94 -7Q63 -7 45 9T26 57Q26 75 34 102L146
478H76L81 498ZM275 -176Q289 -148 301 -114T322 -42H362Q352 -79 337 -113T302 -176H275Z" />
<glyph unicode="&#x164;" glyph-name="Tcaron" horiz-adv-x="552" d="M108 22L207 30L367 664H161L111 529H87L134 693H646L619 529H595L608 664H407L246 30L341 22L335 0H102L108 22ZM534 809L412 726H390L298 811L313 825L404 763L524 825L534 809Z" />
<glyph unicode="&#x165;" glyph-name="tcaron" horiz-adv-x="266" d="M81 498L156 509L193 634H230L192 508H316L309 478H183L68 98Q65 87 63 78T61 61Q61 24 103 24Q132 24 159 32T209 51L204 27Q184 15 156 4T94 -7Q63 -7 45 9T26 57Q26 75 34 102L146 478H76L81
498ZM540 600L592 744L630 735L566 593L540 600Z" />
<glyph unicode="&#x166;" glyph-name="Tbar" horiz-adv-x="552" d="M156 413H303L367 664H161L111 529H87L134 693H646L619 529H595L608 664H407L343 413H494L488 389H337L246 30L341 22L335 0H102L108 22L207 30L297 389H150L156 413Z" />
<glyph unicode="&#x167;" glyph-name="tbar" horiz-adv-x="266" d="M81 498L156 509L193 634H230L192 508H316L309 478H183L147 361H286L279 336H140L68 98Q65 87 63 78T61 61Q61 24 103 24Q132 24 159 32T209 51L204 27Q184 15 156 4T94 -7Q63 -7 45 9T26 57Q26
75 34 102L103 336H40L47 361H111L146 478H76L81 498Z" />
<glyph unicode="&#x168;" glyph-name="Utilde" horiz-adv-x="676" d="M345 751Q362 783 381 799T425 816Q439 816 452 811T479 799T505 788T530 782Q547 782 559 792T587 825L607 815Q590 783 571 766T528 749Q514 749 500 754T473 766T447 777T422 783Q390 783
364 741L345 751ZM301 -9Q198 -9 143 33T87 156Q87 190 97 227L208 663L125 671L131 693H350L344 671L248 663L136 226Q126 189 126 156Q126 87 171 54T304 21Q355 21 393 33T459 69T506 131T537 219L647 663L560 671L566 693H769L763 671L680 663L568 212Q542
104 479 48T301 -9Z" />
<glyph unicode="&#x169;" glyph-name="utilde" horiz-adv-x="519" d="M101 -6Q35 -6 35 62Q35 86 44 119L159 480L71 478L76 499L200 517L205 512L81 119Q71 88 71 66Q71 45 81 36T108 27Q134 27 171 47T249 99T325 167T387 237L468 509H505L360 28L452 31L448
12Q438 9 424 6T395 0T366 -5T342 -7Q330 -7 324 0T323 27L373 182H371Q339 146 303 112T230 52T161 10T101 -6ZM229 631Q246 663 265 679T309 696Q323 696 336 691T363 679T389 668T414 662Q431 662 443 672T471 705L491 695Q474 663 455 646T412 629Q398 629
384 634T357 646T331 657T306 663Q274 663 248 621L229 631Z" />
<glyph unicode="&#x16a;" glyph-name="Umacron" horiz-adv-x="676" d="M301 -9Q198 -9 143 33T87 156Q87 190 97 227L208 663L125 671L131 693H350L344 671L248 663L136 226Q126 189 126 156Q126 87 171 54T304 21Q355 21 393 33T459 69T506 131T537 219L647 663L560
671L566 693H769L763 671L680 663L568 212Q542 104 479 48T301 -9ZM358 778H574L568 751H352L358 778Z" />
<glyph unicode="&#x16b;" glyph-name="umacron" horiz-adv-x="519" d="M101 -6Q35 -6 35 62Q35 86 44 119L159 480L71 478L76 499L200 517L205 512L81 119Q71 88 71 66Q71 45 81 36T108 27Q134 27 171 47T249 99T325 167T387 237L468 509H505L360 28L452 31L448
12Q438 9 424 6T395 0T366 -5T342 -7Q330 -7 324 0T323 27L373 182H371Q339 146 303 112T230 52T161 10T101 -6ZM253 676H469L463 649H247L253 676Z" />
<glyph unicode="&#x16c;" glyph-name="Ubreve" horiz-adv-x="676" d="M301 -9Q198 -9 143 33T87 156Q87 190 97 227L208 663L125 671L131 693H350L344 671L248 663L136 226Q126 189 126 156Q126 87 171 54T304 21Q355 21 393 33T459 69T506 131T537 219L647 663L560
671L566 693H769L763 671L680 663L568 212Q542 104 479 48T301 -9ZM461 734Q418 734 388 759T355 829H382Q386 797 408 781T463 764Q496 764 521 780T559 829H586Q572 784 539 759T461 734Z" />
<glyph unicode="&#x16d;" glyph-name="ubreve" horiz-adv-x="519" d="M101 -6Q35 -6 35 62Q35 86 44 119L159 480L71 478L76 499L200 517L205 512L81 119Q71 88 71 66Q71 45 81 36T108 27Q134 27 171 47T249 99T325 167T387 237L468 509H505L360 28L452 31L448
12Q438 9 424 6T395 0T366 -5T342 -7Q330 -7 324 0T323 27L373 182H371Q339 146 303 112T230 52T161 10T101 -6ZM604 604Q582 604 563 611T529 632T506 665T498 709H523Q525 674 548 654T606 634Q641 634 668 654T706 709H731Q719 661 684 633T604 604Z" />
<glyph unicode="&#x16e;" glyph-name="Uring" horiz-adv-x="676" d="M301 -9Q198 -9 143 33T87 156Q87 190 97 227L208 663L125 671L131 693H350L344 671L248 663L136 226Q126 189 126 156Q126 87 171 54T304 21Q355 21 393 33T459 69T506 131T537 219L647 663L560
671L566 693H769L763 671L680 663L568 212Q542 104 479 48T301 -9ZM455 952Q420 952 401 974T381 1024Q381 1062 405 1084T465 1107Q500 1107 519 1085T539 1034Q539 998 515 975T455 952ZM456 975Q480 975 496 991T513 1034Q513 1053 501 1069T464 1085Q440 1085
424 1069T407 1024Q407 1006 419 991T456 975Z" />
<glyph unicode="&#x16f;" glyph-name="uring" horiz-adv-x="519" d="M360 590Q325 590 306 612T286 662Q286 700 310 722T370 745Q405 745 424 723T444 672Q444 636 420 613T360 590ZM361 613Q385 613 401 629T418 672Q418 691 406 707T369 723Q345 723 329 707T312
662Q312 644 324 629T361 613ZM101 -6Q35 -6 35 62Q35 86 44 119L159 480L71 478L76 499L200 517L205 512L81 119Q71 88 71 66Q71 45 81 36T108 27Q134 27 171 47T249 99T325 167T387 237L468 509H505L360 28L452 31L448 12Q438 9 424 6T395 0T366 -5T342 -7Q330
-7 324 0T323 27L373 182H371Q339 146 303 112T230 52T161 10T101 -6Z" />
<glyph unicode="&#x170;" glyph-name="Uhungarumlaut" horiz-adv-x="676" d="M381 742L493 870L517 848L399 728L381 742ZM501 742L613 870L637 848L518 728L501 742ZM301 -9Q198 -9 143 33T87 156Q87 190 97 227L208 663L125 671L131 693H350L344 671L248 663L136
226Q126 189 126 156Q126 87 171 54T304 21Q355 21 393 33T459 69T506 131T537 219L647 663L560 671L566 693H769L763 671L680 663L568 212Q542 104 479 48T301 -9Z" />
<glyph unicode="&#x171;" glyph-name="uhungarumlaut" horiz-adv-x="519" d="M266 595L393 736L417 714L284 581L266 595ZM386 595L513 736L537 714L403 581L386 595ZM101 -6Q35 -6 35 62Q35 86 44 119L159 480L71 478L76 499L200 517L205 512L81 119Q71 88 71
66Q71 45 81 36T108 27Q134 27 171 47T249 99T325 167T387 237L468 509H505L360 28L452 31L448 12Q438 9 424 6T395 0T366 -5T342 -7Q330 -7 324 0T323 27L373 182H371Q339 146 303 112T230 52T161 10T101 -6Z" />
<glyph unicode="&#x172;" glyph-name="Uogonek" horiz-adv-x="676" d="M311 -9Q197 -9 142 33T87 156Q87 190 97 227L208 663L125 671L131 693H350L344 671L248 663L136 226Q126 189 126 156Q126 87 171 54T304 21Q355 21 393 33T459 69T506 131T537 219L647 663L560
671L566 693H769L763 671L680 663L568 212Q548 131 509 79T403 6Q379 -2 350 -15T297 -47T255 -87T238 -134Q238 -172 284 -172Q298 -172 310 -170T329 -166L323 -189Q314 -193 303 -195T276 -198Q241 -198 222 -181T203 -135Q203 -113 214 -94T241 -58T277 -30T311
-9Z" />
<glyph unicode="&#x173;" glyph-name="uogonek" horiz-adv-x="519" d="M373 182H371Q339 146 303 112T230 52T161 10T101 -6Q35 -6 35 62Q35 86 44 119L159 480L71 478L76 499L200 517L205 512L81 119Q71 88 71 66Q71 45 81 36T108 27Q134 27 171 47T249 99T325
167T387 237L468 509H505L360 28L452 31L448 12Q420 6 401 1T366 -11T339 -27T312 -50Q292 -70 280 -91T267 -134Q267 -172 313 -172Q327 -172 339 -170T358 -166L352 -189Q343 -193 332 -195T305 -198Q270 -198 251 -181T232 -135Q232 -116 241 -97T265 -61T296
-30T329 -4Q324 -1 322 6T323 27L373 182Z" />
<glyph unicode="&#x174;" glyph-name="Wcircumflex" horiz-adv-x="917" d="M455 738L577 821H599L691 736L676 722L585 784L465 722L455 738ZM174 662L113 671L117 693H303L299 671L212 662L220 75H222L554 693H579L595 71H597L914 662L837 671L841 693H1023L1018
671L951 662L595 0H561L545 608H544L217 0H184L174 662Z" />
<glyph unicode="&#x175;" glyph-name="wcircumflex" horiz-adv-x="642" d="M261 617L386 721H408L489 615L474 601L393 684L271 601L261 617ZM105 0Q113 98 117 194T121 368Q121 434 118 481L37 478L42 499Q58 504 84 509T130 515Q143 515 149 509T156 482Q157
462 157 440T157 393Q157 317 154 226T141 46H142Q172 78 202 114T260 187T314 262T359 334Q360 359 360 382T360 426Q360 441 360 455T359 481L279 478L284 499Q300 504 324 509T369 515Q382 515 388 509T395 482Q395 470 395 457T396 429Q396 389 395 343T391
247T385 146T376 46H377Q428 99 473 159T553 279T610 391T640 481L560 478L564 498Q579 504 604 510T653 516Q663 516 669 511T675 492Q675 473 664 441T633 367T585 278T523 182T449 86T366 0H339Q345 72 350 144T357 282Q337 249 311 212T256 138T195 66T132
0H105Z" />
<glyph unicode="&#x176;" glyph-name="Ycircumflex" horiz-adv-x="571" d="M126 22L216 31L289 316L173 662L115 671L121 693H303L297 671L213 662L316 345H318L572 662L492 671L498 693H676L670 671L609 662L327 312L255 31L342 22L337 0H121L126 22ZM293 738L415
821H437L529 736L514 722L423 784L303 722L293 738Z" />
<glyph unicode="&#x177;" glyph-name="ycircumflex" horiz-adv-x="437" d="M-117 -199Q-148 -199 -167 -185T-185 -144Q-185 -124 -176 -109T-158 -83H-133Q-139 -91 -145 -106T-152 -139Q-152 -155 -141 -162T-109 -169Q-82 -169 -52 -158T8 -128T69 -82T128
-23Q133 41 135 102T138 221Q138 304 134 370T125 481L47 478L53 499Q69 504 94 509T139 515Q151 515 156 509T164 482Q168 440 170 378T173 244Q173 187 171 129T163 19H165Q201 64 244 125T327 251T397 375T436 481L355 478L359 498Q374 504 400 510T449 516Q471
516 471 492Q471 470 457 434T420 353T366 259T304 161T238 69T177 -8Q142 -49 106 -84T33 -144T-41 -184T-117 -199ZM450 617L575 721H597L678 615L663 601L582 684L460 601L450 617Z" />
<glyph unicode="&#x178;" glyph-name="Ydieresis" horiz-adv-x="571" d="M126 22L216 31L289 316L173 662L115 671L121 693H303L297 671L213 662L316 345H318L572 662L492 671L498 693H676L670 671L609 662L327 312L255 31L342 22L337 0H121L126 22ZM347 744Q334
744 327 752T319 771Q319 784 327 793T349 802Q362 802 369 794T377 775Q377 762 369 753T347 744ZM491 744Q478 744 471 752T463 771Q463 784 471 793T493 802Q506 802 513 794T521 775Q521 762 513 753T491 744Z" />
<glyph unicode="&#x179;" glyph-name="Zacute" horiz-adv-x="539" d="M-19 24L540 661V664H175L130 527H106L147 693H596L591 669L32 32V29H420L463 167H487L450 0H-24L-19 24ZM295 747L478 830L491 798L303 727L295 747Z" />
<glyph unicode="&#x17a;" glyph-name="zacute" horiz-adv-x="411" d="M-13 0Q-15 8 -16 15T-17 30Q-17 53 -8 71T16 103L368 422Q300 443 247 463T156 484Q124 484 108 460T99 394H73Q67 409 67 424Q67 442 72 458T90 487T119 508T161 516Q209 516 265 495T389
441Q403 458 408 473T414 508H442Q444 485 435 461T397 411L46 95Q96 79 133 67T196 45T239 32T269 27Q306 27 317 49T331 107H362Q359 84 353 64T336 28T308 3T266 -6Q230 -6 175 14T29 74H26Q17 61 14 43T15 0H-13ZM486 612L653 717L670 686L496 593L486 612Z"
/>
<glyph unicode="&#x17b;" glyph-name="Zdotaccent" horiz-adv-x="539" d="M380 745Q367 745 360 753T352 772Q352 785 360 794T382 803Q395 803 402 795T410 776Q410 763 402 754T380 745ZM-19 24L540 661V664H175L130 527H106L147 693H596L591 669L32 32V29H420L463
167H487L450 0H-24L-19 24Z" />
<glyph unicode="&#x17c;" glyph-name="zdotaccent" horiz-adv-x="411" d="M548 635Q535 635 528 643T520 662Q520 675 528 684T550 693Q563 693 570 685T578 666Q578 653 570 644T548 635ZM-13 0Q-15 8 -16 15T-17 30Q-17 53 -8 71T16 103L368 422Q300 443 247
463T156 484Q124 484 108 460T99 394H73Q67 409 67 424Q67 442 72 458T90 487T119 508T161 516Q209 516 265 495T389 441Q403 458 408 473T414 508H442Q444 485 435 461T397 411L46 95Q96 79 133 67T196 45T239 32T269 27Q306 27 317 49T331 107H362Q359 84 353
64T336 28T308 3T266 -6Q230 -6 175 14T29 74H26Q17 61 14 43T15 0H-13Z" />
<glyph unicode="&#x17d;" glyph-name="Zcaron" horiz-adv-x="539" d="M-19 24L540 661V664H175L130 527H106L147 693H596L591 669L32 32V29H420L463 167H487L450 0H-24L-19 24ZM507 809L385 726H363L271 811L286 825L377 763L497 825L507 809Z" />
<glyph unicode="&#x17e;" glyph-name="zcaron" horiz-adv-x="411" d="M-13 0Q-15 8 -16 15T-17 30Q-17 53 -8 71T16 103L368 422Q300 443 247 463T156 484Q124 484 108 460T99 394H73Q67 409 67 424Q67 442 72 458T90 487T119 508T161 516Q209 516 265 495T389
441Q403 458 408 473T414 508H442Q444 485 435 461T397 411L46 95Q96 79 133 67T196 45T239 32T269 27Q306 27 317 49T331 107H362Q359 84 353 64T336 28T308 3T266 -6Q230 -6 175 14T29 74H26Q17 61 14 43T15 0H-13ZM680 700L555 596H533L452 702L467 716L548
633L670 716L680 700Z" />
<glyph unicode="&#x192;" glyph-name="florin" horiz-adv-x="323" d="M75 415H161L196 553Q206 595 223 624T260 670T305 694T355 702Q382 702 399 697T429 685L425 661Q412 666 397 669T359 673Q316 673 284 646T233 546L200 415H326L319 385H192L82 -54Q67 -115
35 -140T-41 -166Q-64 -166 -78 -161T-103 -150L-100 -125Q-91 -129 -78 -132T-47 -136Q-14 -136 10 -116T46 -48L154 385H68L75 415Z" />
<glyph unicode="&#x1fa;" glyph-name="Aringacute" horiz-adv-x="596" d="M-59 22L6 31L423 693H458L481 31L545 22L539 0H353L359 22L442 31L436 230H167L42 31L121 22L115 0H-65L-59 22ZM184 257H435L423 633H421L184 257ZM444 720Q409 720 390 742T370 792Q370
830 394 852T454 875Q489 875 508 853T528 802Q528 766 504 743T444 720ZM445 743Q469 743 485 759T502 802Q502 821 490 837T453 853Q429 853 413 837T396 792Q396 774 408 759T445 743ZM381 902L564 985L577 953L389 882L381 902Z" />
<glyph unicode="&#x1fb;" glyph-name="aringacute" horiz-adv-x="491" d="M98 -7Q56 -7 32 22T8 105Q8 153 21 201T57 295T112 379T180 446T258 491T340 508Q369 508 394 499T434 478H436L452 511H480L329 28L424 31L419 12Q409 9 395 6T365 0T336 -5T312 -7Q301
-7 295 0T293 27L337 158H335Q313 129 285 100T225 47T161 8T98 -7ZM100 27Q129 27 162 43T229 84T293 142T348 208L423 446Q409 461 386 470T336 480Q299 480 264 464T196 421T136 358T88 281T57 197T45 113Q45 27 100 27ZM357 590Q322 590 303 612T283 662Q283
700 307 722T367 745Q402 745 421 723T441 672Q441 636 417 613T357 590ZM358 613Q382 613 398 629T415 672Q415 691 403 707T366 723Q342 723 326 707T309 662Q309 644 321 629T358 613ZM297 785L480 868L493 836L305 765L297 785Z" />
<glyph unicode="&#x1fc;" glyph-name="AEacute" horiz-adv-x="902" d="M-50 22L11 31L523 665L438 671L443 693H933L919 539H895L894 664H612L537 370H714L745 465H769L722 247H698L710 342H530L450 29H780L835 172H858L811 0H318L323 22L411 31L459 217H195L46
31L124 22L119 0H-55L-50 22ZM554 663L217 244H466L573 662L554 663ZM641 747L824 830L837 798L649 727L641 747Z" />
<glyph unicode="&#x1fd;" glyph-name="aeacute" horiz-adv-x="700" d="M120 -8Q62 -8 30 24T-3 105Q-3 241 168 256L321 269L341 344Q344 356 346 368T348 391Q348 432 323 460T237 488Q181 488 149 469T116 419Q116 405 121 388H94Q89 396 86 404T82 423Q82 460
123 488T242 516Q281 516 308 505T352 475T375 430T378 373Q423 440 484 478T607 516Q652 516 679 492T706 423Q706 373 676 341T597 288T483 257T351 241Q340 195 340 151Q340 93 367 59T454 24Q510 24 556 47T639 99L635 69Q621 57 602 44T558 19T506 0T445 -7Q392
-7 358 19T311 89Q276 50 228 21T120 -8ZM303 146Q303 198 313 241L174 233Q96 228 64 196T32 112Q32 72 53 46T127 20Q180 20 225 47T305 116Q303 124 303 131T303 146ZM603 488Q567 488 530 472T460 427T401 357T358 267Q416 272 472 281T572 306T643 350T670
421Q670 451 652 469T603 488ZM387 612L554 717L571 686L397 593L387 612Z" />
<glyph unicode="&#x1fe;" glyph-name="Oslashacute" horiz-adv-x="653" d="M276 -10Q166 -10 103 61L30 -20L9 -2L86 83Q67 112 57 149T46 232Q46 329 77 414T161 564T283 665T428 703Q479 703 520 687T591 642L655 713L676 695L609 621Q632 590 644 550T656 461Q656
364 626 279T545 129T424 28T276 -10ZM278 19Q341 19 394 45T490 116Q520 148 543 188T582 273T607 368T616 467Q616 507 608 539T586 595L125 85Q174 19 278 19ZM86 225Q86 157 110 109L569 618Q521 674 427 674Q369 674 319 651T225 586Q193 554 168 513T124
425T96 328T86 225ZM365 747L548 830L561 798L373 727L365 747Z" />
<glyph unicode="&#x1ff;" glyph-name="oslashacute" horiz-adv-x="476" d="M171 -9Q137 -9 111 1T64 31L7 -37L-12 -20L48 52Q20 93 20 158Q20 236 45 301T110 414T202 489T305 516Q337 516 362 507T406 481L455 540L474 523L423 462Q455 419 455 350Q455 273
431 207T366 93T275 18T171 -9ZM173 19Q219 19 263 45T342 117T398 224T419 357Q419 406 402 437L84 55Q114 19 173 19ZM57 152Q57 108 70 79L386 458Q356 488 303 488Q257 488 213 462T134 391T78 284T57 152ZM261 612L428 717L445 686L271 593L261 612Z" />
<glyph unicode="&#x218;" glyph-name="Scommaaccent" horiz-adv-x="476" d="M182 -8Q122 -8 74 6T-4 37L18 166H42L36 61Q59 45 96 33T188 21Q239 21 274 35T332 71T364 123T374 183Q374 209 369 228T352 263T318 296T264 334L222 361Q199 376 180 392T147 427T126
471T118 525Q118 563 131 595T171 652T237 689T327 703Q385 703 420 692T482 669L470 549H447L444 645Q430 653 403 663T325 674Q242 674 199 635T156 532Q156 508 160 489T175 453T202 421T244 390L287 363Q316 345 339 327T379 289T404 245T413 188Q413 152 401
117T361 54T289 9T182 -8ZM103 -176Q117 -148 129 -114T150 -42H190Q180 -79 165 -113T130 -176H103Z" />
<glyph unicode="&#x219;" glyph-name="scommaaccent" horiz-adv-x="353" d="M125 -9Q94 -9 68 -3T24 15T-5 41T-16 73Q-16 90 -9 103T6 128H33Q28 116 25 105T21 80Q21 51 48 35T123 18Q156 18 182 27T226 51T253 86T263 131Q263 151 256 166T237 194T207 221T169
250Q147 267 130 282T101 312T83 343T76 380Q76 410 89 435T124 477T176 505T239 515Q293 515 324 498T356 447Q356 430 350 415T334 387H308Q321 416 321 442Q321 465 297 476T236 488Q210 488 187 481T147 460T120 428T110 386Q110 370 115 357T131 330T158 304T195
273Q217 255 236 240T269 209T290 176T298 136Q298 106 285 80T249 34T195 3T125 -9ZM296 -176Q310 -148 322 -114T343 -42H383Q373 -79 358 -113T323 -176H296Z" />
<glyph unicode="&#x21a;" glyph-name="uni021A" horiz-adv-x="552" d="M108 22L207 30L367 664H161L111 529H87L134 693H646L619 529H595L608 664H407L246 30L341 22L335 0H102L108 22ZM139 -176Q153 -148 165 -114T186 -42H226Q216 -79 201 -113T166 -176H139Z" />
<glyph unicode="&#x21b;" glyph-name="uni021B" horiz-adv-x="266" d="M81 498L156 509L193 634H230L192 508H316L309 478H183L68 98Q65 87 63 78T61 61Q61 24 103 24Q132 24 159 32T209 51L204 27Q184 15 156 4T94 -7Q63 -7 45 9T26 57Q26 75 34 102L146 478H76L81
498ZM275 -176Q289 -148 301 -114T322 -42H362Q352 -79 337 -113T302 -176H275Z" />
<glyph unicode="&#x237;" glyph-name="uni0237" horiz-adv-x="222" d="M-102 -198Q-129 -198 -152 -185T-176 -145Q-176 -130 -170 -120T-155 -101H-133Q-137 -108 -140 -118T-143 -140Q-143 -155 -131 -162T-99 -170Q-60 -170 -34 -143T12 -54L172 480L78 478L83
499L213 517L218 512L49 -45Q27 -118 -7 -158T-102 -198Z" />
<glyph unicode="&#x2c6;" glyph-name="circumflex" horiz-adv-x="496" d="M219 617L344 721H366L447 615L432 601L351 684L229 601L219 617Z" />
<glyph unicode="&#x2c7;" glyph-name="caron" horiz-adv-x="496" d="M468 700L343 596H321L240 702L255 716L336 633L458 716L468 700Z" />
<glyph unicode="&#x2d8;" glyph-name="breve" horiz-adv-x="496" d="M355 604Q333 604 314 611T280 632T257 665T249 709H274Q276 674 299 654T357 634Q392 634 419 654T457 709H482Q470 661 435 633T355 604Z" />
<glyph unicode="&#x2d9;" glyph-name="dotaccent" horiz-adv-x="496" d="M347 635Q334 635 327 643T319 662Q319 675 327 684T349 693Q362 693 369 685T377 666Q377 653 369 644T347 635Z" />
<glyph unicode="&#x2da;" glyph-name="ring" horiz-adv-x="496" d="M348 590Q313 590 294 612T274 662Q274 700 298 722T358 745Q393 745 412 723T432 672Q432 636 408 613T348 590ZM349 613Q373 613 389 629T406 672Q406 691 394 707T357 723Q333 723 317 707T300
662Q300 644 312 629T349 613Z" />
<glyph unicode="&#x2db;" glyph-name="ogonek" horiz-adv-x="496" d="M153 -198Q118 -198 99 -181T80 -135Q80 -115 89 -96T113 -59T145 -27T178 0H211Q193 -15 176 -31T146 -65T124 -99T115 -134Q115 -172 161 -172Q175 -172 187 -170T206 -166L200 -189Q191
-193 180 -195T153 -198Z" />
<glyph unicode="&#x2dc;" glyph-name="tilde" horiz-adv-x="496" d="M218 631Q235 663 254 679T298 696Q312 696 325 691T352 679T378 668T403 662Q420 662 432 672T460 705L480 695Q463 663 444 646T401 629Q387 629 373 634T346 646T320 657T295 663Q263 663
237 621L218 631Z" />
<glyph unicode="&#x2dd;" glyph-name="hungarumlaut" horiz-adv-x="496" d="M239 595L366 736L390 714L257 581L239 595ZM359 595L486 736L510 714L376 581L359 595Z" />
</font>
</defs>
</svg>
